<?xml version="1.0" encoding="UTF-8"?>
<svg width="12px" height="12px" viewBox="0 0 12 12" version="1.1" xmlns="http://www.w3.org/2000/svg" xmlns:xlink="http://www.w3.org/1999/xlink">
    <!-- Generator: Sketch 53.2 (72643) - https://sketchapp.com -->
    <title>内页-提示</title>
    <desc>Created with Sketch.</desc>
    <g id="完整版-调间距" stroke="none" stroke-width="1" fill="none" fill-rule="evenodd">
        <g id="4-2营销活动/高级营销活动类" transform="translate(-367.000000, -371.000000)" fill="#3B74FF">
            <g id="提示" transform="translate(373.000000, 377.000000) rotate(-180.000000) translate(-373.000000, -377.000000) translate(367.000000, 371.000000)">
                <path d="M6,7.71428571 C5.52857143,7.71428571 5.14285714,8.1 5.14285714,8.57142857 C5.14285714,9.04285714 5.52857143,9.42857143 6,9.42857143 C6.47142857,9.42857143 6.85714286,9.04285714 6.85714286,8.57142857 C6.85714286,8.1 6.47142857,7.71428571 6,7.71428571 M6,11.1428571 C3.16285714,11.1428571 0.857142857,8.83714286 0.857142857,6 C0.857142857,3.16285714 3.16285714,0.857142857 6,0.857142857 C8.83714286,0.857142857 11.1428571,3.16285714 11.1428571,6 C11.1428571,8.83714286 8.83714286,11.1428571 6,11.1428571 M6,0 C2.68285714,0 0,2.68285714 0,6 C0,9.31714286 2.68285714,12 6,12 C9.31714286,12 12,9.31714286 12,6 C12,2.68285714 9.30857143,0 6,0 M6,2.57142857 C5.52857143,2.57142857 5.14285714,2.95714286 5.14285714,3.42857143 L5.14285714,6 C5.14285714,6.47142857 5.52857143,6.85714286 6,6.85714286 C6.47142857,6.85714286 6.85714286,6.47142857 6.85714286,6 L6.85714286,3.42857143 C6.85714286,2.95714286 6.47142857,2.57142857 6,2.57142857" id="内页-提示"></path>
            </g>
        </g>
    </g>
</svg>