<?xml version="1.0" encoding="UTF-8"?>
<svg width="12px" height="12px" viewBox="0 0 12 12" version="1.1" xmlns="http://www.w3.org/2000/svg" xmlns:xlink="http://www.w3.org/1999/xlink">
    <!-- Generator: Sketch 53.2 (72643) - https://sketchapp.com -->
    <title>内页-日期选择</title>
    <desc>Created with Sketch.</desc>
    <g id="完整版-调间距" stroke="none" stroke-width="1" fill="none" fill-rule="evenodd">
        <g id="2票务/影片库/编辑影片库" transform="translate(-532.000000, -425.000000)" fill="#666666">
            <g id="Group-37" transform="translate(258.000000, 415.000000)">
                <g id="日期" transform="translate(274.000000, 10.000000)">
                    <g id="内页-日期选择">
                        <g id="Group-33">
                            <path d="M9.41597525,1.20380634 L9.41597525,0.418278783 C9.41597525,0.187388895 9.22739418,0 8.99409366,0 C8.76079314,0 8.57221207,0.187388895 8.57221207,0.418278783 L8.57221207,1.20380634 L3.50963296,1.20380634 L3.50963296,0.418278783 C3.50963296,0.187388895 3.32063001,0 3.08775137,0 C2.85487273,0 2.66586978,0.187388895 2.66586978,0.418278783 L2.66586978,1.20380634 L0,1.20380634 L0,12 L12,12 L12,1.20380634 L9.41597525,1.20380634 Z M2.66586978,2.05207571 L2.66586978,2.92836976 C2.66586978,3.15925965 2.85487273,3.34664854 3.08775137,3.34664854 C3.32063001,3.34664854 3.50963296,3.15925965 3.50963296,2.92836976 L3.50963296,2.05207571 L8.57221207,2.05207571 L8.57221207,2.92836976 C8.57221207,3.15925965 8.76079314,3.34664854 8.99409366,3.34664854 C9.22739418,3.34664854 9.41597525,3.15925965 9.41597525,2.92836976 L9.41597525,2.05207571 L11.144846,2.05207571 L11.144846,3.34664854 L8.99409366,3.34664854 L3.08775137,3.34664854 L0.855153987,3.34664854 L0.855153987,2.05207571 L2.66586978,2.05207571 Z M0.855153987,11.1525672 L0.855153987,4.18320611 L11.144846,4.18320611 L11.144846,11.1525672 L0.855153987,11.1525672 Z" id="形状" fill-rule="nonzero"></path>
                            <path d="M2,5 L4,5 L4,7 L2,7 L2,5 Z M5,5 L7,5 L7,7 L5,7 L5,5 Z M8,5 L10,5 L10,7 L8,7 L8,5 Z M2,8 L4,8 L4,10 L2,10 L2,8 Z M5,8 L7,8 L7,10 L5,10 L5,8 Z M8,8 L10,8 L10,10 L8,10 L8,8 Z" id="Combined-Shape"></path>
                        </g>
                    </g>
                </g>
            </g>
        </g>
    </g>
</svg>