<?xml version="1.0" encoding="UTF-8"?>
<svg width="12px" height="12px" viewBox="0 0 12 12" version="1.1" xmlns="http://www.w3.org/2000/svg" xmlns:xlink="http://www.w3.org/1999/xlink">
    <!-- Generator: Sketch 53.2 (72643) - https://sketchapp.com -->
    <title>内页-添加-1</title>
    <desc>Created with Sketch.</desc>
    <g id="完整版-调间距" stroke="none" stroke-width="1" fill="none" fill-rule="evenodd">
        <g id="10-9会员/会员等级/编辑会员等级-" transform="translate(-176.000000, -1127.000000)" fill="#3B74FF">
            <g id="Group-23" transform="translate(176.000000, 1125.000000)">
                <g id="内页-添加-1" transform="translate(0.000000, 2.000000)">
                    <path d="M6,12 C2.69175,12 0,9.30825 0,6 C0,2.69175 2.69175,0 6,0 C9.30825,0 12,2.69175 12,6 C12,9.30825 9.30825,12 6,12 Z M6,0.75 C3.105,0.75 0.75,3.105 0.75,6 C0.75,8.89425 3.105,11.25 6,11.25 C8.89425,11.25 11.25,8.89425 11.25,6 C11.25,3.105 8.89425,0.75 6,0.75 Z" id="形状" fill-rule="nonzero"></path>
                    <path d="M9.30747922,6.31578947 L2.90304709,6.31578947 C2.69498414,6.31578947 2.52631579,6.17440571 2.52631579,6 C2.52631579,5.82559429 2.69498414,5.68421053 2.90304709,5.68421053 L9.30747922,5.68421053 C9.51554218,5.68421053 9.68421053,5.82559429 9.68421053,6 C9.68421053,6.17440571 9.51554218,6.31578947 9.30747922,6.31578947 Z" id="路径"></path>
                    <path d="M6,9.68421053 C5.82559429,9.68421053 5.68421053,9.51554218 5.68421053,9.30747922 L5.68421053,2.90304709 C5.68421053,2.69498414 5.82559429,2.52631579 6,2.52631579 C6.17440571,2.52631579 6.31578947,2.69498414 6.31578947,2.90304709 L6.31578947,9.30747922 C6.31578947,9.51554218 6.17440571,9.68421053 6,9.68421053 Z" id="路径"></path>
                </g>
            </g>
        </g>
    </g>
</svg>