<?xml version="1.0" encoding="UTF-8"?>
<svg width="12px" height="12px" viewBox="0 0 12 12" version="1.1" xmlns="http://www.w3.org/2000/svg" xmlns:xlink="http://www.w3.org/1999/xlink">
    <!-- Generator: Sketch 53.2 (72643) - https://sketchapp.com -->
    <title>内页-时间选择 copy</title>
    <desc>Created with Sketch.</desc>
    <g id="完整版-调间距" stroke="none" stroke-width="1" fill="none" fill-rule="evenodd">
        <g id="3-6商品管理/新建单品（添加SKU商品）" transform="translate(-982.000000, -1294.000000)" fill="#666666">
            <g id="内页-时间选择-copy" transform="translate(982.000000, 1294.000000)">
                <g id="Group-100">
                    <path d="M5.99985525,0.868516285 C8.62490335,0.872869738 10.8200067,2.86472291 11.0785994,5.47700665 C11.3371921,8.08929038 9.57521635,10.472859 7.00196943,10.9917971 C4.42872251,11.5107352 1.8806609,9.99635751 1.10659644,7.48802725 C0.332531994,4.97969698 1.58408114,2.29276888 4.00226779,1.27136309 C4.63423926,1.00403208 5.31366901,0.867013748 5.99985525,0.868516285 L5.99985525,0.868516285 Z M5.99985525,8.22823916e-16 C2.68603136,0 0,2.68617612 0,6 C0,9.31382388 2.68603136,12 5.99985525,12 C9.31367913,12 12,9.31382388 12,6 C12,2.68617612 9.31367913,0 5.99985525,0 L5.99985525,8.22823916e-16 Z" id="形状" fill-rule="nonzero"></path>
                    <path d="M9.21351647,8.50060314 C9.12648727,8.50065736 9.0414714,8.47442101 8.96960815,8.42533172 L6.20483131,6.54354644 C6.08653352,6.46324225 6.01534547,6.32985262 6.01448149,6.18687575 L6.00000622,3.43657419 C5.99939032,3.32140127 6.04455276,3.21070105 6.12555797,3.12882716 C6.20656318,3.04695326 6.31677539,3.00061262 6.43194832,3 L6.43426436,3 C6.67319694,2.9999966 6.8672482,3.19301292 6.8685225,3.4319421 L6.88183975,5.95396864 L9.45843806,7.70735826 C9.61607959,7.81466067 9.68527355,8.01225111 9.62901525,8.19445885 C9.57275695,8.37666659 9.4042115,8.50085282 9.21351647,8.50060314 Z" id="路径"></path>
                </g>
            </g>
        </g>
    </g>
</svg>