<?xml version="1.0" encoding="UTF-8"?>
<svg width="14px" height="18px" viewBox="0 0 14 18" version="1.1" xmlns="http://www.w3.org/2000/svg" xmlns:xlink="http://www.w3.org/1999/xlink">
    <!-- Generator: Sketch 53.2 (72643) - https://sketchapp.com -->
    <title>内页-页面区域选择</title>
    <desc>Created with Sketch.</desc>
    <g id="完整版-调间距" stroke="none" stroke-width="1" fill="none" fill-rule="evenodd">
        <g id="10-10会员/会员等级/查看会员等级" transform="translate(-1200.000000, -410.000000)" fill="#3B74FF">
            <g id="内页-页面区域选择" transform="translate(1200.000000, 410.000000)">
                <g id="Group-102">
                    <path d="M13.4714033,4.40380048 C12.5973687,2.3942993 10.8492996,0.855106892 8.83902003,0.25653208 C8.27089755,0.0855107013 7.65907332,2.42168942e-08 7.04724912,0 C4.90586437,0 2.80818137,1.06888361 1.49712947,2.86460807 C0.0112706772,4.83135391 -0.556851802,7.39667459 0.666796603,9.61995251 C1.67193639,11.415677 5.73619722,16.5463183 6.82874048,18 C8.70791483,15.4346793 11.0678082,13.1258907 12.7284739,10.3895487 C13.4714033,9.14964371 13.7773154,8.85035629 13.9521224,7.6104513 C14.0832276,6.58432303 13.9521224,5.51543942 13.4714033,4.40380048 Z M6.95984565,11.1591449 C4.59995226,11.1591449 2.67707615,9.27790972 2.67707618,6.96912115 C2.6770762,4.66033258 4.59995228,2.77909739 6.95984565,2.77909739 C9.31973901,2.77909739 11.2426151,4.66033256 11.2426151,6.96912115 C11.2426151,9.27790975 9.31973903,11.1591449 6.95984565,11.1591449 L6.95984565,11.1591449 Z" id="形状" fill-rule="nonzero"></path>
                    <path d="M5,7.00000003 C5,8.10456951 5.8954305,9 7,9 C8.1045695,9 9,8.10456951 9,7.00000003 C9.00000002,6.28546885 8.61880218,5.6252148 8.00000002,5.2679492 C7.38119785,4.9106836 6.61880215,4.9106836 5.99999998,5.2679492 C5.38119782,5.6252148 4.99999998,6.28546885 5,7.00000003 L5,7.00000003 Z" id="路径"></path>
                </g>
            </g>
        </g>
    </g>
</svg>