<?xml version="1.0" encoding="UTF-8"?>
<svg width="9px" height="9px" viewBox="0 0 9 9" version="1.1" xmlns="http://www.w3.org/2000/svg" xmlns:xlink="http://www.w3.org/1999/xlink">
    <!-- Generator: Sketch 53.2 (72643) - https://sketchapp.com -->
    <title>内页-刷新</title>
    <desc>Created with Sketch.</desc>
    <g id="完整版-调间距" stroke="none" stroke-width="1" fill="none" fill-rule="evenodd">
        <g id="11加载页面/正在加载" transform="translate(-593.000000, -849.000000)" fill="#7FACFE" fill-rule="nonzero">
            <g id="Group-5" transform="translate(136.000000, 56.000000)">
                <g id="Group-4">
                    <g id="Group-3">
                        <g id="Group-2">
                            <g id="Group" transform="translate(24.000000, 24.000000)">
                                <g id="刷新" transform="translate(433.000000, 769.000000)">
                                    <path d="M1.56960314,7.91737197 C0.583071165,7.07383249 0,5.83651393 0,4.5 C0,2.01866285 2.01878166,0 4.49998972,0 C4.69109634,0 4.84614356,0.154934443 4.84614356,0.346154633 C4.84614356,0.537374824 4.69109634,0.692309266 4.49998972,0.692309266 C2.40053209,0.692309266 0.692307695,2.40043471 0.692307695,4.49999999 C0.692307695,5.7563595 1.30119351,6.90912913 2.31078468,7.61661514 L2.31078468,6.7657516 C2.31078468,6.5745314 2.46532794,6.41959697 2.65643456,6.41959697 C2.84754118,6.41959697 3.00208443,6.57453141 3.00208443,6.7657516 L3.00208443,8.26574818 C3.00209473,8.45696837 2.84468194,8.6086733 2.65357532,8.6086733 L1.15357188,8.6086733 C0.962465263,8.6086733 0.807418042,8.45424282 0.807418042,8.26302263 C0.807418042,8.07180243 0.962465263,7.91737197 1.15357188,7.91737197 L1.56960314,7.91737197 Z M6.87437719,1.52346813 L6.87437718,2.34870076 C6.87437718,2.53991068 6.71983393,2.69484511 6.52872731,2.69484511 C6.33762069,2.69484511 6.18307744,2.53991067 6.18307744,2.34869048 L6.18307743,0.848693904 C6.18307743,0.657473703 6.34044907,0.494558045 6.5315557,0.494558045 L8.03154885,0.494558045 C8.22265547,0.494558045 8.37770269,0.657216583 8.37770269,0.848436773 C8.37770269,1.03965696 8.22265547,1.2023155 8.03154885,1.2023155 L7.56076842,1.2023155 C8.46551578,2.04490554 9,3.238996 9,4.5000103 C8.99998972,6.98133715 6.98121835,9 4.5,9 C4.30889338,9 4.15384616,8.84506556 4.15384616,8.65384537 C4.15384616,8.46262517 4.30889338,8.30769073 4.5,8.30769073 C6.59945763,8.30769073 8.30768202,6.59956529 8.30768202,4.50000001 C8.30768202,3.33648188 7.76988563,2.24031258 6.87437719,1.52346813 Z" id="内页-刷新"></path>
                                </g>
                            </g>
                        </g>
                    </g>
                </g>
            </g>
        </g>
    </g>
</svg>