<?xml version="1.0" encoding="UTF-8"?>
<svg width="14px" height="14px" viewBox="0 0 14 14" version="1.1" xmlns="http://www.w3.org/2000/svg" xmlns:xlink="http://www.w3.org/1999/xlink">
    <!-- Generator: Sketch 53.2 (72643) - https://sketchapp.com -->
    <title>内页-退出全屏</title>
    <desc>Created with Sketch.</desc>
    <g id="完整版-调间距" stroke="none" stroke-width="1" fill="none" fill-rule="evenodd">
        <g id="9-8排片/场次票房" transform="translate(-1332.000000, -104.000000)" fill="#3B74FF" fill-rule="nonzero">
            <g id="全屏" transform="translate(1315.000000, 104.000000)">
                <path d="M25.1353222,6.29328346 L29.6524795,6.29328346 C29.943909,6.29328346 30.0313379,6.0309969 29.7981943,5.79785331 L28.3701897,4.36984875 L30.9930552,1.74698324 C31.13877,1.60126849 31.13877,1.36812489 30.9930552,1.19326719 L29.9147661,0.114978041 C29.7690513,-0.0307367114 29.5359077,-0.0307367114 29.36105,0.114978041 L26.7090415,2.7669865 L25.281037,1.33898194 C25.0478934,1.10583834 24.7856068,1.19326719 24.7856068,1.48469669 L24.7856068,5.972711 C24.7856068,6.1475687 24.9604645,6.29328344 25.1353222,6.29328346 L25.1353222,6.29328346 Z M23.0516013,7.59014473 L18.563587,7.59014473 C18.2721575,7.59014473 18.1847286,7.91071717 18.4178722,8.14386079 L19.8458768,9.60100828 L17.2230113,12.2530167 C17.0772965,12.3987315 17.0772965,12.661018 17.2230113,12.8067328 L18.3013004,13.885022 C18.4470152,14.0307367 18.6801588,14.0307367 18.8550165,13.885022 L21.477882,11.2621564 L22.9350295,12.690161 C23.1973161,12.9233046 23.4887456,12.8358758 23.4887456,12.5444462 L23.4887456,8.05643194 C23.4887456,7.8524313 23.255602,7.59014475 23.0516013,7.59014473 Z M24.8147498,8.027289 L24.8147498,12.5444463 C24.8147498,12.8358758 25.0770363,12.9233046 25.3101799,12.690161 L26.7381845,11.2621565 L29.36105,13.885022 C29.5067647,14.0307367 29.7399083,14.0307367 29.9147661,13.885022 L30.9930552,12.8067328 C31.13877,12.6610181 31.13877,12.4278745 30.9930552,12.2530168 L28.3410467,9.6010083 L29.7690513,8.17300374 C30.0021949,7.93986014 29.9147661,7.67757359 29.6233365,7.67757359 L25.1353222,7.67757359 C24.9604645,7.67757359 24.8147498,7.8524313 24.8147498,8.027289 L24.8147498,8.027289 Z M23.5178885,5.94356806 L23.5178885,1.45555375 C23.5178885,1.16412425 23.1973161,1.0766954 22.9641725,1.309839 L21.507025,2.73784354 L18.8550165,0.114978041 C18.7093017,-0.0307367114 18.4470152,-0.0307367114 18.3013004,0.114978041 L17.2230113,1.1932672 C17.0772965,1.33898195 17.0772965,1.57212555 17.2230113,1.74698324 L19.8458768,4.36984876 L18.4178722,5.82699626 C18.1847286,6.08928281 18.2721575,6.38071232 18.563587,6.38071232 L23.0516013,6.38071232 C23.255602,6.38071232 23.5178885,6.1475687 23.5178885,5.94356806 Z" id="内页-退出全屏"></path>
            </g>
        </g>
    </g>
</svg>