<?xml version="1.0" encoding="UTF-8"?>
<svg width="10px" height="10px" viewBox="0 0 10 10" version="1.1" xmlns="http://www.w3.org/2000/svg" xmlns:xlink="http://www.w3.org/1999/xlink">
    <!-- Generator: Sketch 53.2 (72643) - https://sketchapp.com -->
    <title>形状</title>
    <desc>Created with Sketch.</desc>
    <g id="完整版-调间距" stroke="none" stroke-width="1" fill="none" fill-rule="evenodd">
        <g id="10会员信息卡片" transform="translate(-478.000000, -487.000000)" fill="#FFFFFF" fill-rule="nonzero">
            <g id="Group-14" transform="translate(178.000000, 353.000000)">
                <g id="详情-经验-列表-属性" transform="translate(300.000000, 134.000000)">
                    <path d="M5,0 C2.238,0 0,2.238 0,5 C0,7.762 2.238,10 5,10 C7.762,10 10,7.762 10,5 C10,2.238 7.762,0 5,0 Z M3,7.33333333 C2.816,7.33333333 2.66666667,7.184 2.66666667,7 C2.66666667,6.816 2.816,6.66666667 3,6.66666667 C3.184,6.66666667 3.33333333,6.816 3.33333333,7 C3.33333333,7.184 3.184,7.33333333 3,7.33333333 Z M3,5.33333333 C2.816,5.33333333 2.66666667,5.184 2.66666667,5 C2.66666667,4.816 2.816,4.66666667 3,4.66666667 C3.184,4.66666667 3.33333333,4.816 3.33333333,5 C3.33333333,5.184 3.184,5.33333333 3,5.33333333 Z M3,3.33333333 C2.816,3.33333333 2.66666667,3.184 2.66666667,3 C2.66666667,2.816 2.816,2.66666667 3,2.66666667 C3.184,2.66666667 3.33333333,2.816 3.33333333,3 C3.33333333,3.184 3.184,3.33333333 3,3.33333333 Z M7,7.33333333 L4.33333333,7.33333333 C4.14933333,7.33333333 4,7.184 4,7 C4,6.816 4.14933333,6.66666667 4.33333333,6.66666667 L7,6.66666667 C7.184,6.66666667 7.33333333,6.816 7.33333333,7 C7.33333333,7.184 7.184,7.33333333 7,7.33333333 Z M7,5.33333333 L4.33333333,5.33333333 C4.14933333,5.33333333 4,5.184 4,5 C4,4.816 4.14933333,4.66666667 4.33333333,4.66666667 L7,4.66666667 C7.184,4.66666667 7.33333333,4.816 7.33333333,5 C7.33333333,5.184 7.184,5.33333333 7,5.33333333 Z M7,3.33333333 L4.33333333,3.33333333 C4.14933333,3.33333333 4,3.184 4,3 C4,2.816 4.14933333,2.66666667 4.33333333,2.66666667 L7,2.66666667 C7.184,2.66666667 7.33333333,2.816 7.33333333,3 C7.33333333,3.184 7.184,3.33333333 7,3.33333333 Z" id="形状"></path>
                </g>
            </g>
        </g>
    </g>
</svg>