<?xml version="1.0" encoding="UTF-8"?>
<svg width="11px" height="14px" viewBox="0 0 11 14" version="1.1" xmlns="http://www.w3.org/2000/svg" xmlns:xlink="http://www.w3.org/1999/xlink">
    <!-- Generator: Sketch 53.2 (72643) - https://sketchapp.com -->
    <title>标签栏-影城定位</title>
    <desc>Created with Sketch.</desc>
    <g id="完整版-调间距" stroke="none" stroke-width="1" fill="none" fill-rule="evenodd">
        <g id="11-3加载页面-无搜索结果" transform="translate(-160.000000, -30.000000)" fill="#999999" fill-rule="nonzero">
            <g id="Group-2-Copy-3" transform="translate(136.000000, 0.000000)">
                <g id="影城定位" transform="translate(24.000000, 30.000000)">
                    <path d="M8.10526316,5.49282297 C8.10526316,4.05251198 6.93323766,2.88038278 5.49305415,2.88038278 C4.05242421,2.88038278 2.88038278,4.052512 2.88038278,5.49282297 C2.88038278,6.93313395 4.05240827,8.10526316 5.49305415,8.10526316 C6.93323766,8.10526316 8.10526316,6.93313394 8.10526316,5.49282297 Z M3.81436797,5.49282297 C3.81436797,4.56742925 4.5672959,3.81443471 5.49305414,3.81443471 C6.41836596,3.81443471 7.17129387,4.56742927 7.17129387,5.49282297 C7.17129387,6.41821668 6.41836594,7.17121122 5.49305414,7.17121122 C4.5672959,7.17119528 3.81436797,6.41821666 3.81436797,5.49282297 Z M5.49307054,0 C8.52172913,0 10.9856779,2.4696446 10.9856459,5.50575272 C10.9856459,7.44740565 8.86208204,10.757812 7.08070797,13.1931153 C6.70515054,13.7060096 6.12675184,14 5.49305458,14 C4.85889409,14 4.28049539,13.7060096 3.90493796,13.1931153 C2.12357985,10.7568994 0,7.4460288 0,5.50575272 C0,5.24655186 0.209262424,5.03682171 0.467849497,5.03682171 C0.726452554,5.03682171 0.935698994,5.24656788 0.935698994,5.50575272 C0.935698994,6.80262151 2.29308545,9.40231481 4.65969468,12.6385631 C4.85660996,12.9078342 5.1604326,13.062154 5.49303861,13.062154 C5.82519736,13.062154 6.12902,12.9078182 6.32593528,12.6380988 C8.69257645,9.40324338 10.0499629,6.80353407 10.0499629,5.5057527 C10.0499629,2.98710169 8.00589672,0.937845987 5.49305458,0.937845987 C3.80397255,0.937845987 2.26155473,1.8669986 1.46704119,3.36261473 C1.34551852,3.59112454 1.06225314,3.67858681 0.834270365,3.55631894 C0.60628757,3.43451535 0.519490227,3.15059515 0.641012901,2.92208535 C1.59862686,1.11965483 3.45767768,0 5.49307054,0 Z" id="标签栏-影城定位"></path>
                </g>
            </g>
        </g>
    </g>
</svg>