<?xml version="1.0" standalone="no"?>
<!DOCTYPE svg PUBLIC "-//W3C//DTD SVG 1.1//EN" "http://www.w3.org/Graphics/SVG/1.1/DTD/svg11.dtd" >
<!--
2013-9-30: Created.
-->
<svg>
<metadata>
Created by iconfont
</metadata>
<defs>

<font id="iconfont" horiz-adv-x="1024" >
  <font-face
    font-family="iconfont"
    font-weight="500"
    font-stretch="normal"
    units-per-em="1024"
    ascent="896"
    descent="-128"
  />
    <missing-glyph />
    
    <glyph glyph-name="quanbupaiqi" unicode="&#58931;" d="M898.56178562 15.775780520000012h-552.18903954c-30.48601958 0-55.15998807 33.10041154-55.15998807 73.64484391s24.79180025 73.64484389 55.15998807 73.64484387h552.18903954c30.48601958 0 55.15851518-33.10041154 55.15851517-73.64484387s-24.79180025-73.64484389-55.15851517-73.64484391zM898.56178562 310.35515611000005h-552.18903954c-30.48601958 0-55.15998807 33.10041154-55.15998807 73.64484389 0 40.70203232 24.79180025 73.64484389 55.15998807 73.64484389h552.18903954c30.48601958 0 55.15851518-33.10041154 55.15851517-73.64484389s-24.79180025-73.64484389-55.15851517-73.64484389zM143.9245431 604.9345317c-40.66226411 0-73.64484389 32.98257979-73.64484389 73.64484387s32.98257979 73.64484389 73.64484389 73.64484391 73.64484389-32.98257979 73.64484391-73.64484391-32.98257979-73.64484389-73.64484391-73.64484387zM143.9245431 310.35515611000005c-40.66226411 0-73.64484389 32.98257979-73.64484389 73.64484389s32.98257979 73.64484389 73.64484389 73.64484389 73.64484389-32.98257979 73.64484391-73.64484389-32.98257979-73.64484389-73.64484391-73.64484389zM143.9245431 15.775780520000012c-40.66226411 0-73.64484389 32.98257979-73.64484389 73.64484391s32.98257979 73.64484389 73.64484389 73.64484387 73.64484389-32.98257979 73.64484391-73.64484387-32.98257979-73.64484389-73.64484391-73.64484391zM346.31383021 752.22421948h552.18756662c30.48601958 0 55.15998807-32.94281158 55.15998808-73.64484391s-24.67396849-73.64484389-55.15998808-73.64484387H346.31383021c-30.48601958 0-55.15998807 32.94281158-55.15998809 73.64484387s24.67396849 73.64484389 55.15998809 73.64484391z"  horiz-adv-x="1024" />

    
    <glyph glyph-name="zuojiantouda" unicode="&#58932;" d="M441.289 388.657L688.776 141.17c19.526-19.526 19.526-51.185 0-70.711-19.526-19.526-51.185-19.526-70.711 0L335.223 353.301c-19.526 19.526-19.526 51.185 0 70.711l282.843 282.843c19.526 19.527 51.184 19.527 70.711 0 19.526-19.526 19.526-51.184 0-70.71L441.289 388.657z"  horiz-adv-x="1024" />

    
    <glyph glyph-name="youjiantouda" unicode="&#58933;" d="M582.711 388.657L335.223 636.144c-19.526 19.526-19.526 51.184 0 70.711 19.526 19.526 51.184 19.526 70.711 0l282.843-282.843c19.526-19.526 19.526-51.184 0-70.711L405.934 70.459c-19.526-19.527-51.184-19.527-70.711 0-19.526 19.526-19.526 51.184 0 70.71l247.488 247.488z"  horiz-adv-x="1024" />

    
    <glyph glyph-name="shuaxin" unicode="&#58934;" d="M919.10485333 429.46673778C896.48583111 634.2860800000001 722.84842667 793.6 512 793.6c-121.95157333 0-231.45472-53.29578667-306.48888889-137.86567111l49.91658667-82.91214222C313.43502222 651.49383111 406.75441778 702.53340445 512 702.53340445c160.49379555 0 293.26791111-118.67932445 315.35104-273.06666667H739.55555555l136.53333334-227.55555556 136.53333333 227.55555556h-93.51736889zM760.35072 193.39377778000005c-58.09834667-77.65788445-150.79765333-127.92718222-255.24337778-127.92718223-160.49379555 0-293.26791111 118.67932445-315.35104 273.06666667h87.79548445l-136.53333334 227.55555556-136.53333333-227.55555556h93.51736889C120.62151111 133.71392000000003 294.25891555-25.600000000000023 505.10734222-25.600000000000023c121.17788445 0 230.05525333 52.62904889 305.04846223 136.26709333l-49.80508445 82.72668445z"  horiz-adv-x="1024" />

    
    <glyph glyph-name="paiqixiangyouyindaojiantou" unicode="&#58935;" d="M616.244 384c-0.004 0.148 0.005 0.297-0.002 0.445 0.007 4.201-1.282 8.439-4.006 12.053L443.729 620.116c-6.647 8.822-19.188 10.584-28.009 3.936-8.821-6.647-10.584-19.188-3.936-28.009L571.569 384 411.783 171.957c-6.647-8.821-4.885-21.362 3.936-28.009 8.822-6.647 21.362-4.885 28.009 3.936l168.508 223.618c2.723 3.614 4.012 7.852 4.006 12.053 0.007 0.148-0.001 0.297 0.002 0.445z"  horiz-adv-x="1024" />

    
    <glyph glyph-name="huiyuan" unicode="&#58936;" d="M161.58565679-22.067064370000026c0 21.35896861 17.20814881 38.67238042 38.41786385 38.67238041h619.27811761c21.2175705 0 38.41786384-17.93870564 38.41786385-38.67238041 0-21.35896861-17.20657771-38.67238042-38.41786385-38.67238043H200.00352064c-21.2175705 0-38.41786384 17.93870564-38.41786385 38.67238043z m718.78310298 564.09043907c-14.00469628 13.99526976-22.66768657 33.3338166-22.66768656 54.69435627 0 42.70851065 34.62996586 77.32904995 77.34633192 77.32904996 42.71793718 0 77.34633195-34.6205393 77.34633196-77.32904996 0-41.16412916-32.17120999-74.81687703-72.74775151-77.1955073 0 0-81.94491238-334.64531284-81.94491237-348.22424374 0-42.7163661-34.51998955-77.34633195-77.15623006-77.34633195H238.74188685c-42.61267417 0-77.15623005 34.33145874-77.15623006 77.34633195 0 13.50508967-81.94491238 348.22424372-81.94491237 348.22424374-40.57654153 2.37863025-72.74618043 36.03137811-72.74618041 77.1955073 0 42.70851065 34.62839477 77.32904995 77.34633194 77.32904996s77.34633195-34.6205393 77.34633193-77.32904996c0-21.36053969-8.66299028-40.69908652-22.66768657-54.69435627l233.22045553-233.22045552 106.24339037 371.85343737c-27.14529309 12.0062698-46.08635413 39.16727378-46.08635418 70.75246723 0 42.70851065 34.62839477 77.32904995 77.34633196 77.32904994 42.7163661 0 77.34633195-34.6221104 77.34633194-77.32904994 0-31.58519343-18.94106109-58.7477685-46.08635414-70.75246723l106.24339037-371.85343737 233.22202661 233.22045552zM1074.69688223 152.77639987999999c5.05419654 0 5.06362307 7.85545002 0 7.85545001-5.05419654 0-5.06205199-7.85545002 0-7.85545001z"  horiz-adv-x="1024" />

    
    <glyph glyph-name="maipin" unicode="&#58938;" d="M334.90343493 191.47737414000005c-18.51121085 0-33.51658673-15.00537588-33.51658671-33.51658672s15.00537588-33.51658673 33.51658671-33.51658675h335.16586734c18.51121085 0 33.51658673 15.00537588 33.51658673 33.51658675s-15.00537588 33.51658673-33.51658673 33.51658672h-335.16586734z m530.9446296 144.48330208c20.66967904 2.72154683 38.82058657-14.17751619 38.83734487-35.53260941v-304.51159711c0-40.08081023-30.8989413-72.57011359-69.01903123-72.57011358h-666.36001913c-38.12008992 0-69.01903123 32.48930335-69.01903124 72.57011358V300.53364406000003c-0.01843411 10.23093811 4.26330983 19.97588567 11.75426698 26.74958788s17.46549334 9.92090966 27.38137553 8.64057604c61.98557552-7.81271636 124.4789273 9.74494759 173.8857278 48.852101a35.16225114 35.16225114 0 0 0 44.17150964 0c41.51364432-32.8697166 92.51583435-50.69551326 144.99778172-50.67707913 52.47524402-0.00837915 103.4690549 17.81574166 144.98102338 50.67707913a35.16225114 35.16225114 0 0 0 44.17150967 0c41.51364432-32.8697166 92.51583435-50.69551326 144.9977817-50.67707913 9.76840919 0.01508246 19.52508762 0.63681514 29.21976031 1.86184637z m92.57616421 264.21963238l-74.40347089 140.50320742c-17.5710706 33.19817917-52.98134449 54.09577099-91.65780974 54.09241931H212.3517114c-38.67646526 0.00167583-74.08673915-20.895916-91.65948557-54.09241931l-74.40347091-140.50320742c-41.29746235-91.22041827 19.83679184-199.01814034 122.78801551-207.07385199 57.50608369-4.59847568 113.12518354 21.00819655 145.53907457 67.0063602 6.20392021 8.86346135 16.57395213 14.17584035 27.66794235 14.17584035 11.09566604 0 21.46402215-5.31237899 27.66794233-14.17584035 28.79912715-40.75952113 77.35125471-67.52419147 132.40392424-67.52419146s103.58803879 26.76467034 132.40392423 67.52419146c6.20392021 8.86346135 16.57395213 14.17584035 27.66794237 14.17584035s21.46402215-5.31237899 27.66794231-14.17584035c32.41389103-45.99816364 88.03299089-71.60483589 145.53907459-67.0063602 102.95289948 8.05571162 164.08715366 115.85343371 122.78969132 207.07385199z"  horiz-adv-x="1024" />

    
    <glyph glyph-name="piaowushouye" unicode="&#58937;" d="M611.64644968-38.18365984000002V203.06414575999997h-180.9358542v-241.2478056H249.50786089c-33.16252649 0-60.04507103 26.9172239-60.04507102 60.16418714V323.68804857h-114.88069725c-13.31537106 41.57755149-3.48753857 88.94052693 29.56793418 121.99599973L429.3400064 770.87252009c47.05086111 47.04935326 123.26405845 47.1202198 170.40237189-0.01809362L924.99870102 445.596596c32.99516083-32.99516083 42.89989103-80.32194908 29.62824614-121.90854743h-101.73269183v-301.70752127c0-33.22736183-26.82977157-60.16418713-60.04507104-60.16418714H611.64644968z"  horiz-adv-x="1024" />

    
    <glyph glyph-name="shezhi" unicode="&#58939;" d="M510.02671097 267.60108385c65.32120906 0 118.27322654 52.95358857 118.2732265 118.27322652 0 65.32120906-52.95358857 118.27322654-118.2732265 118.27322654s-118.27322654-52.95358857-118.27322654-118.27322654c0-65.32120906 52.95358857-118.27322654 118.27322654-118.27322652z m-87.15150467-306.45367382a430.86043572 430.86043572 0 0 0-128.12553192 48.35029482l-8.77610878 133.23000337-141.13258604 9.29299737a431.34276035 431.34276035 0 0 0-51.85068338 114.61415791l96.18841434 109.728068-100.11613936 114.20724558a430.73946179 430.73946179 0 0 0 43.67944427 109.33686659l153.23155017 10.08954 10.0911111 153.18755968a430.9908362 430.9908362 0 0 0 109.37771493 43.66687554l114.21510105-100.07843322 109.72335473 96.14285277a431.59413475 431.59413475 0 0 0 114.66914605-51.85853883l9.29299737-141.05874484 133.21586354-8.77296659a430.68290255 430.68290255 0 0 0 48.37700339-128.1286741l-84.79801185-96.73515366 81.38246216-92.83727939c-11.59935748-47.87111239-31.14528822-92.63932204-57.16253866-132.82780433l-121.01634968-7.96856848-7.97171067-120.99906769c-40.19319555-26.01253718-84.96454737-45.55532574-132.83880193-57.15468323l-92.87498556 81.37931999-96.78071527-84.80586726z"  horiz-adv-x="1024" />

    
    <glyph glyph-name="tuichu" unicode="&#58940;" d="M512.23948958 300.74886069c-25.53735648 0-46.23831798 20.42393031-46.23831799 45.61952869v426.57625126c0 25.19430384 20.70225603 45.61952869 46.23831799 45.61952869s46.23831798-20.42522485 46.23831798-45.61952869v-426.57625126c0.00129454-25.19559838-20.7009615-45.61952869-46.23831798-45.61952869zM750.20798736 691.46510729C859.73369236 614.35852421 926.25224691 489.02132875 926.25224691 352.52003523999997c0-228.79798866-185.42189479-414.23023977-414.25095237-414.2418906-228.83164667-0.0103563-413.79915852 184.58303399-414.25224691 413.41079704-0.26279127 137.03205421 66.47065663 262.83657797 176.50899879 340.11015649 29.02225351 20.37344332 68.96393733-0.52687707 68.96393735-35.95450596a43.76704443 43.76704443 0 0 0-18.55720614-35.83540844 328.42694859 328.42694859 0 0 1-43.54697292-36.632844c-116.28448933-116.11231573-128.2408448-300.5218816-27.92448505-430.67864305s281.69023337-165.55849955 423.58845693-82.67957034c141.89822356 82.87892923 200.16668571 258.24873435 136.08963034 409.55048391a328.91369497 328.91369497 0 0 1-113.16465208 140.1738986 43.75668812 43.75668812 0 0 0-18.4885956 35.77844874c0.00647269 35.46128688 39.98051998 56.36549088 68.98982811 35.94414966z"  horiz-adv-x="1024" />

    
    <glyph glyph-name="xiangshangzhankaixiaojiantou" unicode="&#58941;" d="M512 418.32630045l-120.14326518-120.1432652c-9.47844741-9.47844741-24.84785303-9.47844741-34.32630045 0s-9.47844741 24.84785303 0 34.32630045L494.83684978 469.81575111c9.47844741 9.47844741 24.84785303 9.47844741 34.32630044 0l137.30641541-137.30641541c9.47966103-9.47844741 9.47966103-24.84785303 0-34.32630045-9.47844741-9.47844741-24.84785303-9.47844741-34.32630045 0L512 418.32630045z"  horiz-adv-x="1024" />

    
    <glyph glyph-name="xiangyouzhankaixiaojiantou" unicode="&#58942;" d="M540.284 384l-98.995 98.995c-7.81 7.81-7.81 20.474 0 28.284s20.474 7.81 28.284 0L582.71 398.142c7.81-7.81 7.81-20.474 0-28.284L469.574 256.721c-7.81-7.811-20.474-7.811-28.284 0-7.81 7.81-7.81 20.474 0 28.284L540.284 384z"  horiz-adv-x="1024" />

    
    <glyph glyph-name="xiangxiazhankaixiaojiantou" unicode="&#58943;" d="M512 349.67369955000004l120.14326518 120.1432652c9.47844741 9.47844741 24.84785303 9.47844741 34.32630045 0s9.47844741-24.84785303 0-34.32630045L529.16315022 298.18303525c-9.47844741-9.47844741-24.84785303-9.47844741-34.32630044 0L357.53043437 435.48945067c-9.47966103 9.47844741-9.47966103 24.84785303 0 34.32630044 9.47844741 9.47844741 24.84785303 9.47844741 34.32630045 0L512 349.67369955000004z"  horiz-adv-x="1024" />

    
    <glyph glyph-name="putongzuoyi" unicode="&#58944;" d="M138.88-30.613333330000046h-0.21333333c-41.23733333 0-74.66666667 33.42933333-74.66666667 74.66666666V418.88c0 41.23733333 33.42933333 74.66666667 74.66666667 74.66666667 3.16053333 0 6.27626667-0.19626667 9.33333333-0.57813334V568.2133333300001c0 127.24586667 103.15306667 230.4 230.4 230.4h267.2c127.24586667 0 230.4-103.15413333 230.4-230.4v-75.2448a75.29813333 75.29813333 0 0 0 9.33333333 0.57813334c41.23733333 0 74.66666667-33.42933333 74.66666667-74.66666667v-374.82666667c0-41.23733333-33.42933333-74.66666667-74.66666667-74.66666666H138.88z"  horiz-adv-x="1024" />

    
    <glyph glyph-name="anmozuoyi" unicode="&#58945;" d="M292.53013333 656h419.81653334c30.37866667 0 56.57173333-21.3568 62.68906666-51.11253333L896 16.452266669999972 128 16l101.4656 586.9024c5.30453333 30.6848 31.92533333 53.0976 63.06453333 53.0976zM144 464c44.1824 0 80-35.8176 80-80v-400c0-17.6736-14.3264-32-32-32h-96c-17.6736 0-32 14.3264-32 32V384c0 44.1824 35.8176 80 80 80zM880 464c44.1824 0 80-35.8176 80-80v-400c0-17.6736-14.32746667-32-32-32h-96c-17.67253333 0-32 14.3264-32 32V384c0 44.1824 35.8176 80 80 80zM320 816h384c35.34613333 0 64-28.65386667 64-64s-28.65386667-64-64-64H320c-35.34613333 0-64 28.65386667-64 64s28.65386667 64 64 64z"  horiz-adv-x="1024" />

    
    <glyph glyph-name="canjizuoyi" unicode="&#58946;" d="M304 64h416c26.50986667 0 48-21.49013333 48-48s-21.49013333-48-48-48H304c-26.50986667 0-48 21.49013333-48 48s21.49013333 48 48 48z m496 96H224v-112c0-44.1824-35.8176-80-80-80s-80 35.8176-80 80V400c0 44.1824 35.8176 80 80 80 18.0096 0 34.62933333-5.95093333 48-15.99466667V672c0 70.69226667 57.30773333 128 128 128h384c70.69226667 0 128-57.30773333 128-128v-207.99466667C845.37066667 474.04906667 861.9904 480 880 480c44.1824 0 80-35.8176 80-80v-352c0-44.1824-35.8176-80-80-80s-80 35.8176-80 80V160z"  horiz-adv-x="1024" />

    
    <glyph glyph-name="changcixuanzhongzhuangtai" unicode="&#58947;" d="M198.66666665 910.66666665h840v-840zM758.29866665 616.40266665l141.153 136.133c11.232 10.833 29.395 10.874 40.75-0.074 11.273-10.872 11.273-28.502 0.077-39.298L780.38266665 558.95466665c-5.292-5.104-12.123-7.812-19.054-8.102-8.342-0.935-17.017 1.667-23.299 7.726l-81.073 78.19c-11.041 10.648-11.087 27.865 0.066 38.621 11.079 10.683 29.155 10.569 40.046 0.067l61.23-59.054z"  horiz-adv-x="1024" />

    
    <glyph glyph-name="zuoweiquanping" unicode="&#58949;" d="M198.369 733.417l117.999 0.294c10.053-0.294 19.368 6.804 20.997 18.632V765.21c-0.295 10.055-8.574 18.484-18.632 18.778l-179.956-0.74c-0.149 0-0.295 0.15-0.447 0.15l-9.166 0.149c-5.03 0.149-9.613-1.772-12.865-5.174-3.251-3.253-4.44-7.835-4.286-12.864 0 0 0.295-9.462 0.295-9.612l0.441-180.696c0.15-10.053 8.58-16.119 18.632-16.411h13.605c10.055-0.294 18.039 8.574 17.89 18.63l-0.59 120.661 214.709-213.377c9.756-9.762 25.578-9.762 35.338 0 9.762 9.76 9.762 25.582 0 35.344L198.366 733.421l0.003-0.004z m713.327-721.308l-0.446 180.696c-0.295 10.056-8.58 16.119-18.632 16.415h-12.861c-10.056 0.291-18.041-8.58-17.896-18.632l0.741-121.258-214.857 213.822c-9.762 9.762-25.582 9.762-35.344 0-9.756-9.759-9.756-25.582 0-35.344l213.972-213.226-117.999-0.294c-10.056 0.294-19.371-6.804-21-18.632v-12.865c0.294-10.055 8.58-18.484 18.632-18.779l179.074 0.741c0.149 0 0.294-0.149 0.446-0.149l9.168-0.15c5.025-0.149 9.613 1.772 12.862 5.175 3.251 3.253 4.433 7.835 4.286 12.862 0 0-0.149 9.463-0.149 9.613l0.004 0.002-0.001 0.003zM377.142 283.153L162.285 69.921l0.74 120.666c0.295 10.053-7.84 18.922-17.895 18.632h-13.6c-10.056-0.294-18.484-6.211-18.632-16.415l-0.591-180.696c0-0.15-0.295-9.613-0.295-9.613-0.15-5.03 1.037-9.613 4.286-12.862 3.253-3.253 7.689-5.323 12.865-5.175l9.167 0.149c0.15 0 0.295 0 0.446 0.15l179.814-0.741c10.053 0.295 18.484 8.577 18.632 18.779v12.862c-1.48 11.978-10.946 18.927-21 18.632l-118.001 0.294L412.188 247.81c9.762 9.762 9.762 25.584 0 35.344-9.608 9.906-25.282 9.906-35.04-0.001h-0.006zM647.745 484.85l214.708 213.965-0.736-121.254c-0.295-10.055 7.835-18.926 17.892-18.63h12.862c10.056 0.294 18.484 6.211 18.632 16.414l0.591 180.548c0 0.15 0.294 9.613 0.294 9.613 0.15 5.025-1.036 9.612-4.289 12.862-3.253 3.254-7.686 5.323-12.865 5.174l-9.168-0.15c-0.149 0-0.291 0-0.44-0.15l-179.074 0.744c-10.056-0.295-18.484-8.58-18.632-18.78v-12.864c1.481-11.978 10.942-18.927 20.998-18.632l117.998-0.295-214.117-213.23c-9.76-9.762-9.76-25.579 0-35.339a24.73 24.73 0 0 1 35.344 0h-0.002l0.004 0.004z"  horiz-adv-x="1024" />

    
    <glyph glyph-name="suoxiao" unicode="&#58950;" d="M359.412 443.179h280v-40h-280v40z m140-280c143.594 0 260 116.406 260 260s-116.406 260-260 260-260-116.406-260-260 116.406-260 260-260z m199.32 35.782l125.856-125.856-28.284-28.284-129.419 129.418c-47.829-32.24-105.453-51.06-167.473-51.06-165.685 0-300 134.315-300 300s134.315 300 300 300c165.686 0 300-134.314 300-300 0-89.178-38.91-169.268-100.68-224.218z"  horiz-adv-x="1024" />

    
    <glyph glyph-name="fangda" unicode="&#58951;" d="M496.72283022 116.00509154999997c174.26993303 0 315.5437037 141.27377067 315.5437037 315.5437037s-141.27377067 315.5437037-315.5437037 315.54370372-315.5437037-141.27377067-315.5437037-315.54370372 141.27377067-315.5437037 315.5437037-315.5437037z m241.90065778 43.42609542l152.74257067-152.74257067-34.32630045-34.32630045-157.06673304 157.0655194c-58.04669155-39.12741925-127.98088533-61.96792889-203.25019496-61.96792888-201.08022518 0-364.08888889 163.0086637-364.08888889 364.08888888s163.0086637 364.08888889 364.08888889 364.0888889c201.08143882 0 364.08888889-163.00745008 364.08888889-364.0888889 0-108.22906311-47.22232889-205.42866015-122.18823111-272.11760828z m-266.17325037 296.39020088v145.63555556h48.54518519v-145.63555556h145.63555555v-48.54518518h-145.63555555v-145.63555556h-48.54518519v145.63555556h-145.63555555v48.54518518h145.63555555z"  horiz-adv-x="1024" />

    
    <glyph glyph-name="fanzhuan" unicode="&#58952;" d="M122.40304355 351.23199999999997h728.17777778v-48.54518518h-728.17777778zM802.03563615 631.48335408v-171.02347378H374.47877215L802.03563615 631.48335408m48.54518518 71.70245214l-728.17777778-291.27111111h728.17777778v291.27111111zM850.58082133-0.7218062199999622v242.72592592h-728.17777778z"  horiz-adv-x="1024" />

    
    <glyph glyph-name="shanchu" unicode="&#58953;" d="M434.3277037 185.28837531v362.47071605c0 14.29946975-11.59129568 25.89076543-25.89076543 25.89076544s-25.89076543-11.59129568-25.89076544-25.89076544v-362.47071605c0-14.29946975 11.59129568-25.89076543 25.89076544-25.89076544s25.89076543 11.59129568 25.89076543 25.89076544zM641.45382717 185.28837531v362.47071605c0 14.29946975-11.59129568 25.89076543-25.89076544 25.89076544s-25.89076543-11.59129568-25.89076543-25.89076544v-362.47071605c0-14.29946975 11.59129568-25.89076543 25.89076543-25.89076544s25.89076543 11.59129568 25.89076544 25.89076544zM822.68918518 573.6498568c-14.29946975 0-25.89076543-11.59129568-25.89076543-25.89076544v-491.92454321c0-28.59764496-23.1838859-51.78153086-51.78153086-51.78153087H278.98311111c-28.59764496 0-51.78153086 23.1838859-51.78153086 51.78153087v491.92454321c0 14.29946975-11.59129568 25.89076543-25.89076543 25.89076544s-25.89076543-11.59129568-25.89076543-25.89076544v-491.92454321c0-57.19658445 46.36647728-103.56306173 103.56306172-103.56306173h466.03377778c57.19658445 0 103.56306173 46.36647728 103.56306172 103.56306173v491.92454321c0 14.29946975-11.59129568 25.89076543-25.89076543 25.89076544zM926.25224691 677.21291852H796.79841975v51.78153087c0 57.19658445-46.36647728 103.56306173-103.56306172 103.56306172H330.76464197c-57.19658445 0-103.56306173-46.36647728-103.56306172-103.56306172v-51.78153087H97.74775309c-14.29946975 0-25.89076543-11.59129568-25.89076544-25.89076543s11.59129568-25.89076543 25.89076544-25.89076544h828.50449382c14.29946975 0 25.89076543 11.59129568 25.89076544 25.89076544s-11.59129568 25.89076543-25.89076544 25.89076543z m-181.23535802 0H278.98311111v51.78153087c0 28.59764496 23.1838859 51.78153086 51.78153086 51.78153086h362.47071606c28.59764496 0 51.78153086-23.1838859 51.78153086-51.78153086v-51.78153087z"  horiz-adv-x="1024" />

    
    <glyph glyph-name="guanbi" unicode="&#58954;" d="M743.99 192.26L552.249 384l191.415 191.415c11.115 11.114 11.115 29.135 0 40.249-11.114 11.115-29.135 11.115-40.249 0L512 424.249 320.26 615.99c-10.935 10.935-28.663 10.935-39.598 0l-0.651-0.651c-10.935-10.935-10.935-28.663 0-39.598L471.751 384 280.336 192.585c-11.115-11.115-11.115-29.135 0-40.249s29.135-11.115 40.249 0L512 343.751l191.74-191.74c10.935-10.935 28.663-10.935 39.598 0l0.651 0.651c10.935 10.934 10.935 28.663 0.001 39.598z"  horiz-adv-x="1024" />

    
    <glyph glyph-name="CheckBox" unicode="&#58955;" d="M392 639c-74.558 0-135-60.442-135-135v-240c0-74.558 60.442-135 135-135h240c74.558 0 135 60.442 135 135V504c0 74.558-60.442 135-135 135H392zM392 624h240c66.274 0 120-53.726 120-120v-240c0-66.274-53.726-120-120-120H392c-66.274 0-120 53.726-120 120V504c0 66.274 53.726 120 120 120z"  horiz-adv-x="1024" />

    
    <glyph glyph-name="CheckBox1" unicode="&#58956;" d="M348 646h240c66.274 0 120-53.726 120-120v-240c0-66.274-53.726-120-120-120H348c-66.274 0-120 53.726-120 120V526c0 66.274 53.726 120 120 120zM451.18 361.754l116.673 116.673c5.858 5.858 15.355 5.858 21.213 0 5.858-5.858 5.858-15.355 0-21.213l-127.279-127.28a14.953 14.953 0 0 0-10.607-4.393 14.953 14.953 0 0 0-10.607 4.393l-63.64 63.64c-5.858 5.858-5.858 15.355 0 21.213 5.858 5.858 15.355 5.858 21.213 0l53.034-53.033z"  horiz-adv-x="1024" />

    
    <glyph glyph-name="yuanxingxialajiantou" unicode="&#58957;" d="M905.12746667 548.10133333c-21.49013333 50.8096-52.25066667 96.43733333-91.42933334 135.61493334-39.1776 39.1776-84.80426667 69.93813333-135.61493333 91.42933333-52.61333333 22.25386667-108.4928 33.53813333-166.0832 33.53813333s-113.4688-11.28426667-166.08426667-33.53813333c-50.8096-21.4912-96.43733333-52.25173333-135.61493333-91.42933333-39.1776-39.1776-69.93813333-84.80426667-91.42933333-135.61493334C96.6176 495.48586667 85.33333333 439.6064 85.33333333 382.01706666999996s11.28426667-113.4688 33.53813334-166.08426667c21.49013333-50.81066667 52.25173333-96.43733333 91.42933333-135.61493333s84.80426667-69.93813333 135.61493333-91.42933334C398.5312-33.36533333 454.4096-44.649599999999964 512-44.649599999999964c57.5904 0 113.46986667 11.28426667 166.08426667 33.53813333 50.81066667 21.49013333 96.43733333 52.25173333 135.61493333 91.42933334 39.1776 39.1776 69.93813333 84.80426667 91.42933333 135.61493333C927.38346667 268.5472 938.66666667 324.42666667000003 938.66666667 382.01706666999996s-11.2832 113.4688-33.5392 166.08426666zM783.52853333 110.48746667C711.00053333 37.95946666999998 614.57066667-1.9829333300000371 512-1.9829333300000371c-102.5696 0-199.00053333 39.9424-271.52853333 112.4704S128 279.44640000000004 128 382.01706666999996 167.9424 581.0176 240.4704 653.54666667 409.4304 766.01706667 512 766.01706667c102.57066667 0 199.0016-39.9424 271.5296-112.4704C856.05653333 581.0176 896 484.58666667 896 382.01706666999996s-39.94346667-199.00053333-112.47146667-271.5296zM601.10933333 443.7568l-90.18133333-90.18133333-90.18133333 90.18133333-60.3392-60.3392 90.18133333-90.18133333-0.32853333-0.32853334 60.3392-60.34026666 0.32853333 0.32853333 0.32853333-0.32853333 60.34026667 60.34026666-0.32853333 0.32853334 90.18133333 90.18133333z"  horiz-adv-x="1024" />

    
    <glyph glyph-name="piaoleixuanzhong1" unicode="&#58958;" d="M181.56666665 911.83333331h840v-840zM709.66666665 582.9333333100001c-4.7 8.3-8.6 16.3-11.6 24-15.3-12.8-28.5-22.2-39.4-28.2-11-6.1-22.5-3.2-34.4 8.7L522.16666665 689.63333331c-12 12-11.7 24.4 1 37.1l60.3 60.3 123.9-123.9-12.6-12.6 17.4-17.4 96.5 96.5L641.96666665 896.33333331 626.66666665 881.03333331l149.4-149.4-53.2-53.2-124 123.8 28.4 28.4-17.8 17.8L501.66666665 740.73333331c-21.8-21.8-22.2-43.3-1-64.4l110.2-110.2c19.1-19.1 38.5-22.9 58.2-11.4 10.8 6.3 24.3 15.7 40.6 28.2zM757.76666665 442.83333331c-20.8 21.3-28.6 43.1-23.5 65.2l88.6 88.6-40.6 40.6-15.3-15.3 24.7-24.7-69.7-69.7c-10.6 0.3-27.9 0.7-51.9 1.1l-8.7-25.7c24.2 2.3 41.7 3.3 52.6 2.9-6.4-25.4 2.5-51 26.5-76.6l42.8-44 73-71.4c8.7 4 16.1 7.5 22.2 10.6l-77.7 74.8-43 43.6zM997.86666665 467.53333331l14.3 14.3-54.1 54.1 36 36-16.2 16.2-36-36-29.7 29.7c10.3 5 21 10.7 32 16.9L931.56666665 618.33333331c-28.3-17.8-57.3-30.8-87-38.9 3.5-8.7 5.8-16 7-22 12.8 3.8 26.5 8.9 41.1 15.2l34.9-34.9-34.6-34.6-68.6 68.6-14.3-14.3 40.3-40.3c-7.3-6.8-13.1-12.2-17.5-16.1-19.9-18-47-19.8-81.4-5.6-1.1-9.4-2.3-17.5-3.5-24.2 40.6-15.7 74.2-11.1 100.9 13.9 5.2 4.6 10.9 10 17.3 16.3l27.9-27.9-46-46c-15.6-15.6-16.2-30.6-1.9-45l15.3-15.3c13.5-13.5 27.5-15.3 42.1-5.2 7.7 5.2 16.9 12.1 27.6 20.5-4.1 8.3-7.4 15.5-9.7 21.8-11.6-10.2-20.5-17.6-26.7-22.2-7.6-5.7-14.6-5.3-20.9 1l-9.9 9.9c-6.1 6.1-5.5 12.8 1.9 20.1l44.3 44.3 48.9-48.9 14.3 14.3-64 64 34.6 34.6 53.9-53.9zM875.76666665 682.73333331l-22.2 4.4c-2.3-16.7-6.7-39.4-13.1-68.2l25.1-4.4c5.3 29.9 8.7 52.6 10.2 68.2z"  horiz-adv-x="1024" />

    
    <glyph glyph-name="huaizuo" unicode="&#58959;" d="M138.88-30.613333330000046h-0.21333333c-41.23733333 0-74.66666667 33.42933333-74.66666667 74.66666666V418.88c0 41.23733333 33.42933333 74.66666667 74.66666667 74.66666667 3.16053333 0 6.27626667-0.19626667 9.33333333-0.57813334V568.2133333300001c0 127.24586667 103.15306667 230.4 230.4 230.4h267.2c127.24586667 0 230.4-103.15413333 230.4-230.4v-75.2448a75.29813333 75.29813333 0 0 0 9.33333333 0.57813334c41.23733333 0 74.66666667-33.42933333 74.66666667-74.66666667v-374.82666667c0-41.23733333-33.42933333-74.66666667-74.66666667-74.66666666H138.88zM743.9424 235.05386667000005L628.86506667 350.12266666999994c7.41013333 20.68906667 11.1616 42.31466667 11.1616 64.47786666 0 105.87306667-86.13013333 192.01173333-192.01173334 192.01173334-26.3584 0-52.0032-5.31306667-76.2016-15.78666667l-11.44746666-4.95573333c-0.01813333-0.01813333 0.07146667-0.02666667 0.03626666-0.0448a9.73333333 9.73333333 0 0 1-3.00053333-2.0544c-3.78666667-3.79413333-3.78666667-9.9648 0.0192-13.76853334 0.05333333-0.0544-0.0544-0.08-0.0192-0.13333333l107.50613333-107.5072-64.6656-64.65493333-105.34613333 105.35466666c-0.16106667-0.01813333-0.32213333-0.02666667-0.53546667 0.18666667-4.464 4.46506667-11.69706667 4.46506667-16.1632 0a11.5168 11.5168 0 0 1-2.66133333-4.16106667c-0.05333333-0.14293333-0.1248-0.07146667-0.19626667-0.08106666l-3.55413333-8.2144c-10.464-24.17066667-15.7856-49.81546667-15.7856-76.192 0-105.86346667 86.13013333-192.01173333 192.01173333-192.01173334 22.144 0 43.7696 3.7504 64.48533334 11.1616l115.0784-115.0624c15.53813333-15.536 36.20053333-24.10773333 58.18346666-24.10773333h0.0192c21.9648 0 42.64533333 8.57173333 58.1824 24.10773333 32.05546667 32.07466667 32.05546667 84.27413333-0.01813333 116.36693334z m-22.60906667-93.73866667c-9.50293333-9.50293333-22.13013333-14.736-35.57546666-14.736-13.42506667 0-26.05226667 5.23306667-35.55733334 14.73706667l-129.40586666 129.38666666-19.07733334-6.82346666c-17.2352-6.16533333-35.30453333-9.29173333-53.70666666-9.29173334-88.22933333 0-160.01066667 71.78133333-160.01066667 160.0128 0 14.9952 2.06293333 29.70773333 6.14933333 43.95093334l106.0896-106.09706667 109.92533334 109.9072-106.10346667 106.10346667c14.24533333 4.08746667 28.95786667 6.14933333 43.95306667 6.14933333 88.2304 0 160.01173333-71.78133333 160.01173333-160.0128 0-18.42026667-3.12426667-36.4832-9.28746667-53.68746667l-6.83626666-19.0848 129.4048-129.39733333c19.6032-19.6128 19.61173333-51.52 0.02666666-71.1168z"  horiz-adv-x="1024" />

    
    <glyph glyph-name="tishichenggongtubiao" unicode="&#58960;" d="M575.137 454.711l-98.995-98.995-42.426 42.426c-7.81 7.81-20.474 7.81-28.284 0s-7.81-20.474 0-28.284L462 313.289c7.81-7.81 20.474-7.81 28.284 0l113.137 113.137c7.81 7.81 7.81 20.474 0 28.284s-20.473 7.811-28.284 0.001zM504.426 624c-132.686 0-240-107.314-240-240s107.314-240 240-240 240 107.314 240 240-107.657 240-240 240z m0-445.714c-113.486 0-205.714 92.229-205.714 205.714s92.229 205.714 205.714 205.714S710.141 497.486 710.141 384s-92.229-205.714-205.715-205.714z"  horiz-adv-x="1024" />

    
    <glyph glyph-name="tishigantanhao" unicode="&#58961;" d="M512 498.144c-18.857 0-34.286-15.429-34.286-34.286v-102.857c0-18.857 15.429-34.286 34.286-34.286s34.286 15.429 34.286 34.286V463.859c0 18.857-15.429 34.285-34.286 34.285m0 102.858c-132.686 0-240-107.314-240-240s107.314-240 240-240 240 107.314 240 240-107.657 240-240 240m0-445.715c-113.486 0-205.714 92.229-205.714 205.714S398.514 566.716 512 566.716s205.714-92.229 205.714-205.714S625.486 155.287 512 155.287m0 137.143c-18.857 0-34.286-15.429-34.286-34.286s15.429-34.286 34.286-34.286 34.286 15.429 34.286 34.286c0 18.858-15.429 34.286-34.286 34.286"  horiz-adv-x="1024" />

    
    <glyph glyph-name="suoji" unicode="&#58962;" d="M731.552 624v-165.041C800.561 441.198 852 378.554 852 304v-200c0-88.366-71.634-160-160-160H332c-88.366 0-160 71.634-160 160V304c0 74.554 51.439 137.198 120.448 154.959V624C302.553 736.13 397.239 824 512 824s209.447-87.87 219.552-200z m-40.101 0c-9.949 89.999-86.8 160-179.451 160s-169.502-70.001-179.451-160v-160h358.902V624zM492 146v-122h40V146c45.645 9.265 80 49.62 80 98 0 55.228-44.772 100-100 100s-100-44.772-100-100c0-48.379 34.355-88.734 80-98z"  horiz-adv-x="1024" />

    
    <glyph glyph-name="qingshuaqiatuikuan" unicode="&#58963;" d="M512 384m-512 0a512 512 0 1 1 1024 0 512 512 0 1 1-1024 0ZM698.921 359.619v-81.27h48.762v-81.27H292.571v81.27h48.762v81.27H243.81v-227.555h552.634V359.619zM422.603 310.857h16.254v-81.27h146.286V570.921h48.762v-341.333h48.762V587.175c0 17.954-14.554 32.508-32.508 32.508H390.095c-17.954 0-32.508-14.554-32.508-32.508v-357.587h65.016v81.269z m0 260.064h16.254v-178.794h-16.254V570.921z"  horiz-adv-x="1024" />

    
    <glyph glyph-name="dengdaikehushurumima" unicode="&#58964;" d="M512 384m-512 0a512 512 0 1 1 1024 0 512 512 0 1 1-1024 0ZM373.841 423.619v97.524 1.016c0 80.791 65.494 146.286 146.286 146.286s146.286-65.494 146.286-146.286c0-0.339-0.001-0.677-0.003-1.016l0.003-97.524h16.254c35.907 0 65.016-29.109 65.016-65.016v-195.048c0-35.907-29.109-65.016-65.016-65.016h-325.08c-35.907 0-65.016 29.109-65.016 65.016V358.603c0 35.907 29.109 65.016 65.016 65.016h16.254z m260.064 0v97.524c0 62.838-50.94 113.778-113.778 113.778s-113.778-50.94-113.778-113.778v-97.524h227.556z m-81.27-186.35c19.433 11.242 32.508 32.253 32.508 56.318 0 35.907-29.109 65.016-65.016 65.016-35.907 0-65.016-29.109-65.016-65.016 0-24.065 13.075-45.076 32.508-56.318v-57.46c0-17.954 14.554-32.508 32.508-32.508s32.508 14.554 32.508 32.508v57.46z"  horiz-adv-x="1024" />

    
    <glyph glyph-name="qingshuaqiashouquan" unicode="&#58965;" d="M894.382 551.059L669.015 160.712l54.012-31.184 225.367 390.347-54.012 31.184zM736.659 672.187l253.609-146.421c12.175-7.029 16.347-22.598 9.317-34.773L776.807 105.13c-7.029-12.175-22.598-16.347-34.773-9.317L488.426 242.234c-12.175 7.029-16.347 22.597-9.317 34.773L701.887 662.87c7.029 12.175 22.597 16.347 34.772 9.317zM512.717 228.209l130.471-75.327c-4.232-8.438-7.942-12.074-16.405-20.512-12.696-12.658-31.739-18.987-50.782-12.658-12.696 4.219-16.927 16.877-12.696 37.973-16.927-12.658-33.855-14.767-50.782-6.329-16.927 8.439-21.159 21.096-12.696 37.973l12.89 38.88zM362.292 358.368l133.304 12.658c-12.696 21.096-33.855 33.754-63.478 37.973-29.624 4.219-52.899-12.658-69.826-50.631zM76.686 434.336L355.944 567.22c33.855 12.658 67.71 8.439 101.565-12.658 33.855-21.096 76.174-52.477 126.956-94.142l-50.782-88.604 95.217 5.538c21.159-4.219 33.855-14.767 38.087-31.644 6.348-25.315-6.348-50.631-38.087-63.289-21.159-8.438-112.144-21.096-272.955-37.973-50.782-46.412-99.449-71.727-145.999-75.946-46.55-4.219-90.985-6.329-133.304-6.329h-0.048c-31.552 0-57.13 60.926-57.13 136.081s25.578 136.081 57.13 136.081l0.092 0.001z"  horiz-adv-x="1024" />

    
    <glyph glyph-name="shangjiantouanniu" unicode="&#58966;" d="M62 684c-13.807 0-25-11.193-25-25v-550c0-13.807 11.193-25 25-25h900c13.807 0 25 11.193 25 25V659c0 13.807-11.193 25-25 25H62z m0 25h900c27.614 0 50-22.386 50-50v-550c0-27.614-22.386-50-50-50H62c-27.614 0-50 22.386-50 50V659c0 27.614 22.386 50 50 50zM518.066 398.645l-79.549-79.55c-4.881-4.882-12.796-4.882-17.678 0-4.881 4.882-4.881 12.796 0 17.678l88.388 88.388c4.882 4.882 12.796 4.882 17.677 0l88.388-88.388c4.882-4.882 4.882-12.796 0-17.678-4.881-4.882-12.796-4.882-17.678 0l-79.548 79.55z"  horiz-adv-x="1024" />

    
    <glyph glyph-name="xiajiantouanniu" unicode="&#58967;" d="M62 684c-13.807 0-25-11.193-25-25v-550c0-13.807 11.193-25 25-25h900c13.807 0 25 11.193 25 25V659c0 13.807-11.193 25-25 25H62z m0 25h900c27.614 0 50-22.386 50-50v-550c0-27.614-22.386-50-50-50H62c-27.614 0-50 22.386-50 50V659c0 27.614 22.386 50 50 50zM518.066 332.223l79.549 79.549c4.882 4.882 12.796 4.882 17.678 0 4.882-4.882 4.882-12.796 0-17.678l-88.388-88.388c-4.881-4.882-12.796-4.882-17.677 0l-88.388 88.388c-4.881 4.882-4.881 12.796 0 17.678 4.882 4.882 12.796 4.882 17.678 0l79.548-79.549z"  horiz-adv-x="1024" />

    
    <glyph glyph-name="zuojiantouanniu" unicode="&#58968;" d="M62 684c-13.807 0-25-11.193-25-25v-550c0-13.807 11.193-25 25-25h900c13.807 0 25 11.193 25 25V659c0 13.807-11.193 25-25 25H62z m0 25h900c27.614 0 50-22.386 50-50v-550c0-27.614-22.386-50-50-50H62c-27.614 0-50 22.386-50 50V659c0 27.614 22.386 50 50 50zM472.355 377.934l79.549-79.55c4.882-4.882 4.882-12.796 0-17.678-4.881-4.882-12.796-4.882-17.677 0l-88.388 88.388c-4.881 4.882-4.881 12.796 0 17.678l88.388 88.388c4.882 4.881 12.796 4.881 17.677 0 4.882-4.882 4.882-12.796 0-17.678l-79.549-79.548z"  horiz-adv-x="1024" />

    
    <glyph glyph-name="youjiantouanniu" unicode="&#58969;" d="M62 673c-13.807 0-25-11.193-25-25v-550c0-13.807 11.193-25 25-25h900c13.807 0 25 11.193 25 25V648c0 13.807-11.193 25-25 25H62z m0 25h900c27.614 0 50-22.386 50-50v-550c0-27.614-22.386-50-50-50H62c-27.614 0-50 22.386-50 50V648c0 27.614 22.386 50 50 50zM538.777 366.934l-79.549 79.549c-4.881 4.882-4.881 12.796 0 17.678 4.882 4.881 12.796 4.881 17.677 0l88.388-88.388c4.882-4.882 4.882-12.796 0-17.678l-88.388-88.388c-4.881-4.882-12.796-4.882-17.677 0s-4.881 12.796 0 17.678l79.549 79.549z"  horiz-adv-x="1024" />

    
    <glyph glyph-name="kaiqia" unicode="&#58970;" d="M114.825 672.207h780c33.137 0 60-26.863 60-60v-480c0-33.137-26.863-60-60-60h-780c-33.137 0-60 26.863-60 60v480c0 33.137 26.863 60 60 60zM804.825 252.207m-180 0a180 180 0 1 1 360 0 180 180 0 1 1-360 0ZM924.825 282.207h-90v90h-60v-90h-90v-60h90v-90h60v90h90zM54.825 552.207h900v-90h-900zM114.825 342.207h150v-30h-150zM324.825 342.207h90v-30h-90zM114.825 222.207h270v-30h-270z"  horiz-adv-x="1024" />

    
    <glyph glyph-name="xiugaiziliao" unicode="&#58971;" d="M182 107.033h660c24.853 0 45-20.147 45-45s-20.147-45-45-45H182c-24.853 0-45 20.147-45 45s20.147 45 45 45zM689.422 686.698l84.853-84.853c23.432-23.431 23.432-61.421 0-84.853L443.751 186.469a60 60 0 0 0-42.426-17.574h-84.853c-33.137 0-60 26.863-60 60v84.853a59.996 59.996 0 0 0 17.574 42.426L604.57 686.698c23.431 23.432 61.421 23.432 84.852 0zM736.117 733.393l84.853-84.853c23.431-23.432 23.431-61.421 0-84.853l-63.64-63.64-169.705 169.707 63.64 63.64c23.43 23.431 61.42 23.431 84.852-0.001z"  horiz-adv-x="1024" />

    
    <glyph glyph-name="xiugaimima" unicode="&#58972;" d="M812 459H362v69.492c0 32.777 3.633 53.419 3.672 53.641C380.756 649.033 440.542 699 512 699c72.569 0 133.101-51.533 146.999-120 0 0 3.001-23.915 3.001-60h60v30c0 115.98-94.02 210-210 210s-210-94.02-210-210v-90h-90c-33.137 0-60-26.863-60-60v-330c0-33.137 26.863-60 60-60h600c33.137 0 60 26.863 60 60V399c0 33.137-26.863 60-60 60zM512 99c-82.843 0-150 67.157-150 150s67.157 150 150 150 150-67.157 150-150-67.157-150-150-150zM602 249c0 49.706-40.294 90-90 90s-90-40.294-90-90c0-39.185 25.046-72.516 60-84.872V39h60V164.128c34.954 12.356 60 45.687 60 84.872z"  horiz-adv-x="1024" />

    
    <glyph glyph-name="zhongzhimima" unicode="&#58973;" d="M662 429h-30v60c0 66.274-53.726 120-120 120s-120-53.726-120-120v-60h-30c-33.137 0-60-26.863-60-60v-150c0-33.137 26.863-60 60-60h300c33.137 0 60 26.863 60 60V369c0 33.137-26.863 60-60 60z m-210 60c0 33.137 26.863 60 60 60s60-26.863 60-60v-60H452v60zM482 369h60v-150h-60zM906.178 514.312a416.085 416.085 0 0 0 1.864-5.157 29.799 29.799 0 0 1-1.864 5.157zM888.445 530.115a30.05 30.05 0 0 1-9.532 1.55c-16.621 0-30.095-13.474-30.095-30.095a30 30 0 0 1 2.412-11.819c-0.276 0.775-0.538 1.557-0.82 2.33l38.035 38.034zM908.042 509.155a416.085 416.085 0 0 1-1.864 5.157 30.173 30.173 0 0 1-17.734 15.803l-38.034-38.034c0.281-0.773 0.544-1.555 0.82-2.33C864.668 452.003 872 411.36 872 369c0-198.823-161.177-360-360-360S152 170.177 152 369s161.177 360 360 360c67.597 0 130.842-18.631 184.882-51.037l43.546 43.546C674.678 764.202 596.235 789 512 789 280.04 789 92 600.96 92 369s188.04-420 420-420 420 188.04 420 420c0 49.148-8.445 96.322-23.958 140.155zM801.924 657.972L612.02 629.049l120 207.846z"  horiz-adv-x="1024" />

    
    <glyph glyph-name="buqia" unicode="&#58974;" d="M120.75 684h780c33.137 0 60-26.863 60-60v-480c0-33.137-26.863-60-60-60h-780c-33.137 0-60 26.863-60 60V624c0 33.137 26.863 60 60 60zM810.75 264m-180 0a180 180 0 1 1 360 0 180 180 0 1 1-360 0ZM777.734 335.222c103.927-35.417 164.78-109.257 182.561-221.522-36.074 84.836-104.454 130.588-205.14 137.256l-19.57-73.038L630.75 332.525 798.842 414l-21.108-78.778zM60.75 564h900v-90h-900zM120.75 354h150v-30h-150zM330.75 354h90v-30h-90zM120.75 234h270v-30h-270z"  horiz-adv-x="1024" />

    
    <glyph glyph-name="shengjihuanqia" unicode="&#58975;" d="M120.807 684h780c33.137 0 60-26.863 60-60v-480c0-33.137-26.863-60-60-60h-780c-33.137 0-60 26.863-60 60V624c0 33.137 26.863 60 60 60zM60.807 564h900v-90h-900zM810.807 264m-180 0a180 180 0 1 1 360 0 180 180 0 1 1-360 0ZM930.807 264l-120 120-120-120h90v-120h60V264zM120.807 354h150v-30h-150zM330.807 354h90v-30h-90zM120.807 234h270v-30h-270z"  horiz-adv-x="1024" />

    
    <glyph glyph-name="guashijiegua" unicode="&#58976;" d="M713.389 459H653.793v89.596C653.793 664.799 559.592 759 443.389 759s-210.404-94.201-210.404-210.404V459H173.389c-33.137 0-60-26.863-60-60v-330c0-33.137 26.863-60 60-60h540c33.137 0 60 26.863 60 60V399c0 33.137-26.863 60-60 60z m-270 239.263c82.659 0 149.667-67.008 149.667-149.667V459H293.722v89.596c0 82.659 67.008 149.667 149.667 149.667z m30-569.263c0-16.569-13.432-30-30-30s-30 13.431-30 30V309c0 16.568 13.432 30 30 30s30-13.432 30-30v-180zM758.389 234m-225 0a225 225 0 1 1 450 0 225 225 0 1 1-450 0ZM847.635 287.033L900.668 234c29.289-29.289 29.289-76.777 0-106.066l-21.213-21.213c-29.289-29.289-76.777-29.289-106.066 0l-53.033 53.033 42.427 42.426 46.669-46.669c11.716-11.716 30.711-11.716 42.427 0 11.716 11.716 11.716 30.711 0 42.426l-46.669 46.669 42.425 42.427z m-21.213 21.213l-42.427-42.426-38.184 38.184c-11.716 11.716-30.711 11.716-42.426 0-11.716-11.716-11.716-30.711 0-42.426l38.184-38.184-42.426-42.427L646.11 234c-29.289 29.289-29.289 76.777 0 106.066l21.213 21.213c29.289 29.289 76.777 29.289 106.066 0l53.033-53.033z"  horiz-adv-x="1024" />

    
    <glyph glyph-name="huiyuanzhuxiao" unicode="&#58977;" d="M422 592.322m-180 0a180 180 0 1 1 360 0 180 180 0 1 1-360 0ZM509.074 376.469L422 202.322 334.996 376.33C178.208 354.042 62 270.659 62 144.389c0-148.711 161.177-148.708 360-148.708s360-2.572 360 148.708c0 128.434-116.173 210.287-272.926 232.08zM842 202.322h90c16.568 0 30-13.432 30-30 0-16.569-13.432-30-30-30h-90c-16.568 0-30 13.431-30 30 0 16.568 13.432 30 30 30z m83.789 30H842c-33.137 0-60-26.863-60-60s26.863-60 60-60h72.009c-27.311-53.425-82.888-90-147.009-90-91.127 0-165 73.873-165 165s73.873 165 165 165c75.526 0 139.201-50.745 158.789-120z"  horiz-adv-x="1024" />

    
    <glyph glyph-name="chongzhi" unicode="&#58978;" d="M121.313 684h780c33.137 0 60-26.863 60-60v-480c0-33.137-26.863-60-60-60h-780c-33.137 0-60 26.863-60 60V624c0 33.137 26.863 60 60 60zM61.313 564h900v-90h-900zM811.313 264m-180 0a180 180 0 1 1 360 0 180 180 0 1 1-360 0ZM826.313 264v-30h90v-30h-90v-90h-30v90h-90v30h90v30h-90v30h65.147l-68.786 68.787L723.887 384l87.426-87.426L898.739 384l21.214-21.213L851.166 294h65.147v-30zM121.313 354h150v-30h-150zM331.313 354h90v-30h-90zM121.313 234h270v-30h-270z"  horiz-adv-x="1024" />

    
    <glyph glyph-name="chongxiao" unicode="&#58979;" d="M332 643.152v30c0 33.137 26.863 60 60 60h240c33.137 0 60-26.863 60-60v-30h150c33.137 0 60-26.863 60-60v-510c0-33.137-26.863-60-60-60H182c-33.137 0-60 26.863-60 60v510c0 33.137 26.863 60 60 60h150zM392 253.152h90v60h-87.868l107.574 107.574-42.427 42.426-102.426-102.426-102.427 102.426L212 420.726l107.574-107.574H242v-60h90v-30h-90v-60h90v-90h60v90h90v60h-90zM752 343.152h-90v-60l-150 90 150 90v-60h150v-330H632v60h120zM392 673.152h240v-120H392z"  horiz-adv-x="1024" />

    
    <glyph glyph-name="chaxun" unicode="&#58980;" d="M501.649 770.603L828.11 622.916c30.191-13.658 43.594-49.205 29.936-79.396a59.999 59.999 0 0 0-29.936-29.936L501.649 365.897a59.997 59.997 0 0 0-49.461 0L125.727 513.584c-30.191 13.658-43.594 49.205-29.936 79.397a59.999 59.999 0 0 0 29.936 29.936l326.461 147.687a60.001 60.001 0 0 0 49.461-0.001zM667.308 70.01l-160.511-72.613a59.997 59.997 0 0 0-49.461 0L130.875 145.084c-30.191 13.658-43.594 49.205-29.936 79.397a59.999 59.999 0 0 0 29.936 29.936l11.79 5.333 314.671-142.353a59.997 59.997 0 0 1 49.461 0l95.447 43.179c10.065-41.467 33.397-72.974 65.064-90.566z m-69.324 162.408l-102.835-46.521a59.997 59.997 0 0 0-49.461 0L119.227 333.584c-30.191 13.658-43.594 49.205-29.936 79.397a59.999 59.999 0 0 0 29.936 29.936l15.04 6.804 317.921-143.823a59.997 59.997 0 0 1 49.461 0l153.521 69.451c-31.048-41.668-52.053-92.072-57.186-142.931zM836.075 203.805c23.431 23.431 23.431 61.421 0 84.853-23.432 23.431-61.421 23.431-84.853 0-23.432-23.432-23.432-61.421 0-84.853 23.431-23.432 61.421-23.432 84.853 0z m18.54-60.966c-46.017-27.178-106.281-20.998-145.819 18.54-46.863 46.863-46.863 122.843 0 169.706 46.863 46.863 122.842 46.863 169.705 0 39.538-39.538 45.718-99.802 18.54-145.819l66.313-66.313-42.427-42.426-66.312 66.312z"  horiz-adv-x="1024" />

    
    <glyph glyph-name="jifenduihuan" unicode="&#58981;" d="M842 209.147L926.853 294l0.058-0.058 0.016 0.016 5.073 5.073v0.036l-16.157 16.157 0.071 0.009L842 389.147l77.597 77.597 7.256 7.256 5.091 5.091-16.175 16.175 0.099 0.012L842 569.147l83.001 83.001C914.916 671.099 894.964 684 872 684H332v-600h540c25.73 0 47.669 16.199 56.195 38.952l-2.251 2.251L842 209.147zM452 414l60 120h240l60-120H452zM632 174L452 384h360zM92 624v-151.5a75.333 75.333 0 0 0 15 1.5c41.421 0 75-33.579 75-75s-33.579-75-75-75a75.407 75.407 0 0 0-15 1.5V144c0-33.137 26.863-60 60-60h120V684H152c-33.137 0-60-26.863-60-60zM929.504 126.831c0.017 0.056 0.037 0.111 0.053 0.168l-0.246-0.246 0.193 0.078zM452 414l60 120h240l60-120z"  horiz-adv-x="1024" />

    
    <glyph glyph-name="yuejiezhuan" unicode="&#58982;" d="M902 489H302c-33.137 0-60-26.863-60-60v-330c0-33.137 26.863-60 60-60h600c33.137 0 60 26.863 60 60V429c0 33.137-26.863 60-60 60zM482 699H122c-33.137 0-60-26.863-60-60v-300c0-33.137 26.863-60 60-60h60V549h360v90c0 33.137-26.863 60-60 60zM182 489.518c0 30.492 22.751 55.653 52.201 59.479H182v-59.479zM632 219v-30h90v-60h-90v-60h-60v60h-90v60h90v30h-90v60h77.574L452 386.574 494.426 429l102.427-102.426L699.279 429l42.427-42.426L634.132 279H722v-60zM752 669v60l-150-90 150-90v60h90v-90h60V669z"  horiz-adv-x="1024" />

    
    <glyph glyph-name="huiyuanqiajihuo" unicode="&#58983;" d="M119.781 624h780c33.137 0 60-26.863 60-60v-480c0-33.137-26.863-60-60-60h-780c-33.137 0-60 26.863-60 60V564c0 33.137 26.862 60 60 60zM59.781 504h900v-90h-900zM599.781 174c0-49.706-40.294-90-90-90s-90 40.294-90 90h180z m0 60h-180v47.446c-87.955 35.603-150 121.833-150 222.554 0 132.548 107.452 240 240 240s240-107.452 240-240c0-100.721-62.045-186.951-150-222.554V234zM517.06 484.294l84.853 84.853 42.426-42.426L517.06 399.442l-42.427 42.426-84.852 84.853 42.426 42.426z"  horiz-adv-x="1024" />

    
    <glyph glyph-name="shoujihaokaiqia" unicode="&#58984;" d="M152 318.378c33.137 0 60 26.863 60 60s-26.863 60-60 60-60-26.863-60-60 26.863-60 60-60z m120 300v-480h600v480H272z m-150 90h780c33.137 0 60-26.863 60-60v-540c0-33.137-26.863-60-60-60H122c-33.137 0-60 26.863-60 60v540c0 33.137 26.863 60 60 60zM542 408.378v120h60v-120h120v-60H602v-120h-60v120H422v60z"  horiz-adv-x="1024" />

    
    <glyph glyph-name="duorenzuoyiyou" unicode="&#58985;" d="M-10.15466666 117.90300000000002h-0.217v438.93c0 119.22 96.647 215.867 215.867 215.867h448.04c119.22 0 215.867-96.647 215.867-215.867v-70.505a71.385 71.385 0 0 0 8.848 0.548c39.094 0 70.786-31.692 70.786-70.786v-349.525c0-33.208-22.867-61.075-53.713-68.714a70.257 70.257 0 0 0-17.902-2.305h-48.095v-0.247H-10.15466666V117.90300000000002z"  horiz-adv-x="1024" />

    
    <glyph glyph-name="duorenzuoyizhong" unicode="&#58986;" d="M386.63755932 787.52968748h657.15144208c120.97838159 0 219.05048094-98.07209936 219.05048094-219.05048093V-3.485937519999993H167.58707838V568.4792065500001C167.58707838 689.45758812 265.65917774 787.52968748 386.63755932 787.52968748z"  horiz-adv-x="1417" />

    
    <glyph glyph-name="duorenzuoyizuo" unicode="&#58987;" d="M1034.15466666 117.90300000000002h0.217v438.93c0 119.22-96.647 215.867-215.867 215.867h-448.04c-119.22 0-215.867-96.647-215.867-215.867v-70.505a71.385 71.385 0 0 1-8.848 0.548c-39.094 0-70.786-31.692-70.786-70.786v-349.525c0-33.208 22.867-61.075 53.713-68.714a70.257 70.257 0 0 1 17.902-2.305h48.095v-0.247H1034.15666666V117.90300000000002z"  horiz-adv-x="1024" />

    
    <glyph glyph-name="qinglvzuoyizuo1" unicode="&#58990;" d="M953.52666666 516.1800000000001c34.13 0 64.19-18.65 81.77-46.95V570.15c0 119.22-96.65 215.87-215.87 215.87H371.38666666c-119.22 0-215.87-96.65-215.87-215.87v-70.51c-2.9 0.36-5.85 0.55-8.85 0.55-39.09 0-70.79-31.69-70.79-70.79v-349.53c0-33.21 22.87-61.07 53.71-68.71 5.71-1.5 11.71-2.3 17.9-2.3h48.1v-0.25H1035.06666666v122.6h0.22V216.60000000000002c-104.36 50.1-163.07 105.3-176.11 165.61-2.46 9.2-3.78 18.91-3.78 28.95 0.01 58 43.94 105.02 98.13 105.02z"  horiz-adv-x="1024" />

    
    <glyph glyph-name="qinglvzuoyiyou1" unicode="&#58991;" d="M879.17333334 500.19c-3 0-5.95-0.19-8.85-0.55v70.51c0 119.22-96.65 215.87-215.87 215.87H206.41333334c-119.22 0-215.87-96.65-215.87-215.87v-100.91c17.58 28.3 47.64 46.95 81.77 46.95 54.19 0 98.12-47.02 98.12-105.02 0-10.04-1.32-19.75-3.78-28.95-13.03-60.32-71.74-115.53-176.1-165.62v-85.38h0.22v-122.6h839.48v0.25h48.1c6.19 0 12.19 0.8 17.9 2.3 30.85 7.64 53.71 35.51 53.71 68.71V429.4c-0.01 39.1-31.7 70.79-70.79 70.79z"  horiz-adv-x="1024" />

    
    <glyph glyph-name="huaizuo1" unicode="&#58992;" d="M954.15597622 145.58758635000004L734.90844063 364.83512195000003c14.03346937 39.45642106 21.35527943 80.74329465 21.35527946 122.84370268 0 201.95992843-164.13057627 366.0905047-366.09050471 366.09050472-50.2357526 0-99.25120349-10.16918069-145.21590017-30.10077488l-21.76204668-9.35564622s0.20338363 0 0 0c-2.03383611-0.81353444-4.06767226-2.23721977-5.69474121-3.86428866-7.11842649-7.3218101-7.11842649-18.91467606 0-26.23648616 0-0.20338363-0.20338363-0.20338363 0-0.20338361L422.51120997 578.99806719l-123.2504699-123.25046993-200.94301035 200.94301037c-0.40676722 0-0.61015086 0-1.01691809 0.40676722-8.5421118 8.5421118-22.3721975 8.5421118-30.91430928 0-2.23721977-2.23721977-4.06767226-5.08459036-5.08459033-7.93196093 0-0.20338363-0.20338363-0.20338363-0.40676724-0.20338362l-6.71165927-15.66053826c-19.93159414-46.16808032-30.10077484-94.98014759-30.10077481-145.21590018 0-201.75654479 164.13057627-366.0905047 366.09050468-366.0905047 42.30379165 0 83.38728163 7.11842649 123.04708631 21.35527943l219.45091918-219.45091918c29.69400759-29.69400759 68.94704505-45.9646967 110.84406948-45.9646967s81.35344548 16.2706891 110.84406949 45.9646967c61.01508413 60.81170049 61.01508413 160.46967123-0.20338362 221.68813894z m-43.11732612-178.77419645c-18.10114162-18.10114162-42.10040802-28.0669387-67.93012699-28.06693869-25.62633533 0-49.62560176 9.96579706-67.72674336 28.06693869L528.67745634 213.51771333l-36.40566688-13.01655128c-32.94814542-11.79624959-67.31997615-17.69437441-102.50534131-17.6943744-168.19824852 0-305.0754206 136.87717204-305.07542057 305.07542057 0 28.67708955 3.86428866 56.74402823 11.79624959 83.79404887l202.36669567-202.36669562 209.68850573 209.4851221-202.36669565 202.36669566c27.25340422 7.72857733 55.11695933 11.79624959 83.79404885 11.79624959 168.19824852 0 305.0754206-136.87717204 305.07542059-305.0754206 0-35.18536518-5.89812479-69.5571959-17.69437442-102.30195767l-13.01655128-36.40566687 246.70432344-246.70432342c37.42258493-37.42258493 37.42258493-98.23428542 0-135.65687036z"  horiz-adv-x="1024" />

    
    <glyph glyph-name="jianpanjiantou" unicode="&#58993;" d="M814.2 154.7h-560c-22.1 0-40-17.9-40-40s17.9-40 40-40h560c22.1 0 40 17.9 40 40 0 22-17.9 40-40 40zM508.8 323.5c7.8-7.8 18-11.7 28.3-11.7s20.5 3.9 28.3 11.7l282.8 282.8c15.6 15.6 15.6 40.9 0 56.6-15.6 15.6-40.9 15.6-56.6 0L537 408.4 282.5 662.9c-15.6 15.6-40.9 15.6-56.6 0-15.6-15.6-15.6-40.9 0-56.6l282.9-282.8z"  horiz-adv-x="1024" />

    
    <glyph glyph-name="zixunrexian" unicode="&#58994;" d="M712.1 276.9c0-12.3-10-22.3-22.1-22.3h-25.5V408H690c10.1 0 22.1-3.9 22.1-22.3v-108.8z m-477.9 0V385.7c0 18.4 12 22.3 22.1 22.3h24.8v-153.3h-24.8c-12.2-0.1-22.1 10-22.1 22.2z m455.7 172.2h-25.5v9.5c0 51.3-20 99.7-56.3 136.3-36.3 36.5-84.4 56.7-135.4 56.7s-99-20.1-135.4-56.7C301 558.4 281 510 281 458.6v-9.5h-24.7c-37.1 0-63-26.1-63-63.4v-108.8c0-35 28.3-63.4 63-63.4h32.4v-0.2c0-49.1 39.8-89.1 88.6-89.1h29.5c1.4-17.6 16.1-31.5 34-31.5h64.9c18.7 0 34.1 15.4 34.1 34.3v22.1c0 18.9-15.3 34.3-34.1 34.3h-64.9c-17.9 0-32.6-14.1-34-31.7h-29.5c-33.8 0-61.3 27.7-61.3 61.7v6.2l0.6 0.6c0.3 0.3 0.7 0.8 0.9 1.1 0.1 0.1 0.1 0.2 0.2 0.3l0.9 1.2c0 0.1 0.1 0.1 0.1 0.2 0.3 0.4 0.5 0.8 0.8 1.2 0 0.1 0.1 0.1 0.1 0.2 0.3 0.4 0.4 0.9 0.7 1.4 0 0.1 0.1 0.2 0.1 0.3 0.2 0.4 0.3 0.9 0.5 1.4 0 0.1 0.1 0.2 0.1 0.2 0.2 0.4 0.3 0.9 0.4 1.5v0.1c0.2 0.5 0.3 1 0.3 1.5 0 0.1 0 0.2 0.1 0.3 0.1 0.5 0.2 1 0.2 1.5v0.3c0 0.5 0.1 1.1 0.1 1.6V458.6c0 83.6 67.6 151.7 150.7 151.7s150.7-68 150.7-151.7v-224.5c0-5.5 2.1-10.7 6-14.6 3.8-3.9 9-6 14.5-6h45.8c34.7 0 63 28.5 63 63.4V385.7c0.2 37.4-25.7 63.4-62.9 63.4z"  horiz-adv-x="1024" />

    
    <glyph glyph-name="shouhoufuwu" unicode="&#58995;" d="M769.7 466c14.5-34.4 21.9-71 21.9-108.7 0.1-37.3-7.4-74.3-21.9-108.7-14-33.1-34.2-63.3-59.7-88.8-25.3-25.5-55.4-45.8-88.5-59.8-34.4-14.6-70.8-23-108.4-23-37.6 0-72 3-103.1 15.6-20.6 8.3-37.3 21-46.5 32.2-13.1 15.5-19 48.4-8.5 75.5 3 7.7 7.7 15.6 14 23.6-4.7 7.5-7.9 13.6-9.8 18.1-1.8 4.6-2.7 8.9-2.7 13 0 21.1 7.6 52.7 22.9 94.9 15 41.7 34.6 81.6 58.4 119 13 20.3 25.8 38.4 38.3 54.2 12.5 16 21.5 25.9 27.3 29.9 4.7 3.5 11.4 6.1 20.3 8 9 1.8 19.8 2.7 32.5 2.7 8.2 0 13.5-1.5 16-4.3 2.6-2.8 3.9-8.3 3.9-16.5 0-10-2.1-22.2-6.1-36.4-4.1-14.4-8.8-26.1-14.2-35.3-5.9-9.1-14.9-14.3-26.8-15.5-3.6-0.4-6.3-0.9-7.9-1.6-7-2.4-13.7-7.9-20.3-16.5-6.7-8.7-15.2-23.7-25.8-45.1-9.2-18.9-16-35.3-20.8-49.1-4.8-13.6-7.2-24.6-7.2-33 0-6.4 2.6-12.5 7.8-18.7 5.1-6.1 7.7-10.1 7.7-11.9 0-2.9-2.2-9.6-6.6-20-4-10-9.3-19.5-15.7-28.3-7.5-9.8-15-17.8-22.4-24.1-7.6-6.3-13.1-9.4-16.8-9.4-2.3 0-4.9 0.7-7.8 2.4-3 1.7-6.3 4.1-9.9 7.6-3.7-4.9-4.7-9.4-6.3-13.6-1.6-4.3-2.4-8.7-2.4-13.1 0-13.7 3.6-25.7 14-36 9.3-7.3 18.8-11 28.8-15.2 21.7-9.2 44.6-15.2 68.1-17.8 6.1-0.3 12.5-0.5 19-0.5 32.4 0 63.9 6.4 94.4 19.1 30.2 12.5 57.7 31 80.7 54.2 23.3 23 41.7 50.5 54 80.7 12.7 30.6 19 62.2 19 94.8 0.1 32.6-6.4 64.9-19 95-12.5 30.2-30.9 57.7-54 80.8-10.3 10.3-21.3 19.6-32.8 27.8-12 7.8-24.7 14.6-37.9 20.2-30.3 12.8-62.5 19.4-95.7 19.4-32.9 0.1-65.4-6.5-95.7-19.4-29.5-12.4-56-30.4-78.4-52.8-46.3-46.3-72.2-109-72-174.3-0.1-61.1 22.5-120 63.6-165.4-1.1-1.4-4.9-4.7-16.3-4.4-0.8 0-1.5 0.1-2.2 0.1-0.5-0.1-0.9-0.1-1.2-0.1-1.4 0-3 0.2-4.5 0.7-10.5 1.6-17.4 5.6-22 9.4-13.6 19.5-24.6 40.6-32.8 62.9-1.7 4.1-3.4 8.3-4.9 12.5-9.6 26.8-14.3 56-14.3 87.5 0 35.9 7 70.5 20.9 104.2 13.5 33.1 33.5 63.2 58.9 88.5 22.1 22.4 48 40.7 76.5 54.1 38.5 19.3 81.1 29.3 124.3 29.3 37.3 0.1 74.2-7.4 108.4-22 33.1-14 63.2-34.4 88.5-59.8 25.5-25.5 45.7-55.7 59.7-88.8z m-191.2-20.7c-5.4 1.5-12.3 3.7-20.6 6.4 10.2 12.6 18 27.6 23.5 44.8 5.4 17.2 8.2 35.6 8.2 55.4 15.2-5.7 25.2-11.2 30.1-16.4 4.9-5.2 7.3-12.5 7.3-21.7 0-16.2-3.9-31.9-11.6-47.3-7.8-15.5-15.8-23.3-24.1-23.3-3.1 0-7.4 0.7-12.8 2.1zM474.2 275.1c10.8-7.3 18.1-13 21.8-17.4 3.7-4.4 5.6-8.8 5.6-13.6 0-12.4-6.2-27.1-18.9-43.9-12.5-16.9-24.5-25.4-35.9-25.4-3.4 0-7.9 1.3-13.4 3.7-5.5 2.5-11.8 6.1-18.9 10.7 15.5 11.2 28.1 24 38.2 38.3 10.1 14.5 17.4 30.6 21.5 47.6z"  horiz-adv-x="1024" />

    
    <glyph glyph-name="xinghao" unicode="&#58996;" d="M815.2 400.5l-232.8-45.6 162.8-203.7L644.5 82 514 306.9 381.8 82l-100.7 69.2 162 203.7-234.4 45.6 40.9 113.3 221.8-84.9L450.3 686h126.6l-22-257.2 221.8 84.9 38.5-113.2z"  horiz-adv-x="1024" />

    
    <glyph glyph-name="tuichuquanping" unicode="&#58997;" d="M373.2 783.9h-12.9c-12-1.5-18.9-10.9-18.6-21l0.1-173.2-187.3 187.1c-9.8 9.8-25.6 9.8-35.3 0-9.9-9.8-9.9-25.6 0-35.3l188-187.7-176.9 0.7c-10.1 0.3-18.9-7.8-18.6-17.9v-12.9c0.3-10.1 6.2-18.5 16.4-18.6l245.8 0.1c5-0.1 9.6 1 12.9 4.3 3.3 3.3 5.2 7.7 5.2 12.9v243c-0.4 9.9-8.6 18.4-18.8 18.5zM386.9 259.3c-3.3 3.3-7.7 5.2-12.9 5.2H131c-10.1-0.3-18.5-8.6-18.6-18.8v-12.9c1.5-12 10.9-18.9 21-18.6l173.2 0.1-187-187.2c-9.8-9.8-9.8-25.6 0-35.3 9.8-9.9 25.6-9.9 35.3 0l187.7 188-0.7-176.9c-0.3-10.1 7.8-18.9 17.9-18.6h12.9c10.1 0.3 18.5 6.2 18.6 16.4l-0.1 245.8c0.2 5-1 9.6-4.3 12.8zM912.4 232.4v12.9c-0.3 10.1-6.2 18.5-16.4 18.6l-245.8-0.1c-5 0.1-9.6-1-12.9-4.3-3.3-3.3-5.2-7.7-5.2-12.9v-243c0.3-10.1 8.6-18.5 18.8-18.6h12.9c12 1.5 18.9 10.9 18.6 21l-0.1 173.2 187.3-187.1c9.8-9.8 25.6-9.8 35.3 0 9.9 9.8 9.9 25.6 0 35.3l-188 187.7 176.9-0.7c10-0.2 18.9 7.9 18.6 18zM636.4 509.7c3.3-3.3 7.7-5.2 12.9-5.2h243c10.1 0.3 18.5 8.6 18.6 18.8v12.9c-1.5 12-10.9 18.9-21 18.6l-173.2-0.1L903.8 742c9.8 9.8 9.8 25.6 0 35.3-9.8 9.9-25.6 9.9-35.3 0l-187.7-188 0.7 176.9c0.3 10.1-7.8 18.9-17.9 18.6h-12.9c-10.1-0.3-18.5-6.2-18.6-16.4l0.1-245.8c-0.2-5.1 1-9.7 4.2-12.9z"  horiz-adv-x="1024" />

    
    <glyph glyph-name="dengdaisaomiaokehuzhifupingzheng" unicode="&#59002;" d="M512 384m-512 0a512 512 0 1 1 1024 0 512 512 0 1 1-1024 0ZM503.9 440.9h48.8v-195h-48.8v195z m-32.5 0h16.3v-195h-16.3v195z m97.5 0h32.5v-195h-32.5v195z m-211.3 0h16.3v-195h-16.3v195z m81.3 0h16.3v-195h-65.1v195h48.8z m195 0h48.8v-195h-65.1v195h16.3z m-260.1 65h292.6c9 0 16.3-7.3 16.3-16.3s-7.3-16.3-16.3-16.3H373.8c-9 0-16.3 7.3-16.3 16.3s7.4 16.3 16.3 16.3z m341.4-16.5v49c0 18-14.6 32.5-32.5 32.5h-48.8c-9 0-16.3 7.3-16.3 16.3s7.3 16.3 16.3 16.3h48.8c35.9 0 65-29.1 65-65v-49c-0.1-8.9-7.4-16-16.3-16-8.9-0.1-16.1 7-16.2 15.9z m-308.9 81.5h-48.8c-18 0-32.5-14.6-32.5-32.5v-49c-0.1-8.9-7.4-16-16.3-16s-16.1 7.1-16.3 16v49c0 35.9 29.1 65 65 65h48.8c9 0 16.3-7.3 16.3-16.3s-7.2-16.2-16.2-16.2z m0-422.6h-48.8c-35.9 0-65 29.1-65 65v48.5 0.3c0 9 7.3 16.3 16.3 16.3s16.3-7.3 16.3-16.3v-48.8c0-18 14.6-32.5 32.5-32.5h48.8c9 0 16.3-7.3 16.3-16.3s-7.4-16.2-16.4-16.2z m227.6 32.5h48.8c18 0 32.5 14.6 32.5 32.5v48.5 0.3c0 9 7.3 16.3 16.3 16.3s16.3-7.3 16.3-16.3v-48.8c0-35.9-29.1-65-65-65H634c-9 0-16.3 7.3-16.3 16.3s7.2 16.2 16.2 16.2z"  horiz-adv-x="1024" />

    
    <glyph glyph-name="zhifuzhongqingnaixindengdai" unicode="&#59003;" d="M512 384m-512 0a512 512 0 1 1 1024 0 512 512 0 1 1-1024 0ZM747.7 383.2zM747.7 350.7h-130c-18 0-32.5-14.6-32.5-32.5v-65c0-18 14.6-32.5 32.5-32.5h130c18 0 32.5 14.6 32.5 32.5v65c0 17.9-14.6 32.5-32.5 32.5z m-81.3-97.6c-18 0-32.5 14.6-32.5 32.5 0 18 14.6 32.5 32.5 32.5s32.5-14.6 32.5-32.5-14.5-32.5-32.5-32.5zM552.6 253.1v65c0 35.9 29.1 65 65 65h130c-0.5 35.4-29.4 64-65 64H341.3c-35.9 0-65-29.1-65-65v-195c0-35.9 29.1-65 65-65h341.3c35.9 0 65 29.1 65 65v1h-130c-35.9 0-65 29.1-65 65zM379.1 477.9h296.1c7 12.4 5.2 28.4-5.4 38.9L566.4 620.2c-12.7 12.7-33.3 12.7-46 0l-0.5-0.5 0.5-0.5-141.3-141.3zM420.2 634.8c-17.3 4.6-35.2-5.6-39.8-23l-31.8-118.5L475.3 620l-55.1 14.8z"  horiz-adv-x="1024" />

    
    <glyph glyph-name="changcixuanzhongzhuangtai1" unicode="&#59004;" d="M92 804h840v-840zM833.5 645.8c-11.4 10.9-29.5 10.9-40.8 0.1L651.6 509.7l-61.2 59.1c-10.9 10.5-29 10.6-40-0.1-11.2-10.8-11.1-28-0.1-38.6l81.1-78.2c6.3-6.1 15-8.7 23.3-7.7 6.9 0.3 13.8 3 19.1 8.1l159.9 154.2c11.1 10.8 11.1 28.4-0.2 39.3z"  horiz-adv-x="1024" />

    
    <glyph glyph-name="juzhong" unicode="&#59005;" d="M537 684H337v-100h350V684H537z m0-600h150V184H337v-100h200z m0-50v-50h-50v50H287V234h200v50H137V484h350v50H287V734h200v50h50v-50h200v-200H537v-50h350v-200H537v-50h200v-200H537z"  horiz-adv-x="1024" />

    
    <glyph glyph-name="zhifuzhongqingnaixindengdai1" unicode="&#59006;" d="M512 384m-512 0a512 512 0 1 1 1024 0 512 512 0 1 1-1024 0ZM747.7 383.2zM747.7 350.7h-130c-18 0-32.5-14.6-32.5-32.5v-65c0-18 14.6-32.5 32.5-32.5h130c18 0 32.5 14.6 32.5 32.5v65c0 17.9-14.6 32.5-32.5 32.5z m-81.3-97.6c-18 0-32.5 14.6-32.5 32.5 0 18 14.6 32.5 32.5 32.5s32.5-14.6 32.5-32.5-14.5-32.5-32.5-32.5zM552.6 253.1v65c0 35.9 29.1 65 65 65h130c-0.5 35.4-29.4 64-65 64H341.3c-35.9 0-65-29.1-65-65v-195c0-35.9 29.1-65 65-65h341.3c35.9 0 65 29.1 65 65v1h-130c-35.9 0-65 29.1-65 65zM379.1 477.9h296.1c7 12.4 5.2 28.4-5.4 38.9L566.4 620.2c-12.7 12.7-33.3 12.7-46 0l-0.5-0.5 0.5-0.5-141.3-141.3zM420.2 634.8c-17.3 4.6-35.2-5.6-39.8-23l-31.8-118.5L475.3 620l-55.1 14.8z"  horiz-adv-x="1024" />

    
    <glyph glyph-name="xiangzuozhankaixiaojiantou-copy" unicode="&#59008;" d="M483.716 384l98.995-98.995c7.81-7.81 7.81-20.474 0-28.284s-20.474-7.81-28.284 0L441.29 369.85799999999995c-7.81 7.81-7.81 20.474 0 28.284L554.426 511.279c7.81 7.811 20.474 7.811 28.284 0 7.81-7.81 7.81-20.474 0-28.284L483.716 384z"  horiz-adv-x="1024" />

    
    <glyph glyph-name="ertongzuowei" unicode="&#59050;" d="M926.4 62l-61 346.1c-6.7 38.1-43 63.5-81.1 56.8-2.8-0.5-5.4-1.3-8.1-2.2 3.7 17.9 5.8 36.5 5.8 55.5 0 149.1-120.9 270-270 270s-270-120.9-270-270c0-19 2-37.6 5.8-55.5-2.7 0.8-5.3 1.6-8.1 2.1-38.1 6.7-74.4-18.7-81.1-56.8l-61-346c-6.7-38.1 18.7-74.4 56.8-81.1 38.1-6.7 74.4 18.7 81.1 56.8l14.8 84.1h523.5l14.8-84.1c6.7-38.1 43-63.5 81.1-56.8 38 6.7 63.5 43 56.7 81.1z"  horiz-adv-x="1024" />

    
    <glyph glyph-name="duorenzuoyizhong1" unicode="&#59052;" d="M808.1 766.7H215.9C96.6 766.7 0 670.1 0 550.8v-490.2c0-1.8 0.1-3.6 0.2-5.4v-65.8h1023.6v65.8c0.1 1.8 0.2 3.6 0.2 5.4V550.8c0 119.3-96.6 215.9-215.9 215.9z"  horiz-adv-x="1024" />

    
    <glyph glyph-name="duorenzuoyiyou1" unicode="&#59053;" d="M-21.13333333 117.89999999999998H-21.33333333V556.8C-21.33333333 676 75.26666667 772.7 194.56666667 772.7h512.6c119.2 0 215.9-96.6 215.9-215.9v-70.5c2.9 0.4 5.9 0.5 8.8 0.5 39.1 0 70.8-31.7 70.8-70.8v-349.5c0-33.2-22.9-61.1-53.7-68.7-5.7-1.5-11.7-2.3-17.9-2.3h-48.1v-0.2H-21.13333333V117.89999999999998z"  horiz-adv-x="1024" />

    
    <glyph glyph-name="duorenzuoyizuo1" unicode="&#59054;" d="M1045.13333333 117.89999999999998h0.2V556.8c0 119.2-96.6 215.9-215.9 215.9H316.83333333c-119.2 0-215.9-96.6-215.9-215.9v-70.5c-2.9 0.4-5.9 0.5-8.8 0.5C53.03333333 486.9 21.33333333 455.2 21.33333333 416.1v-349.5c0-33.2 22.9-61.1 53.7-68.7 5.7-1.5 11.7-2.3 17.9-2.3h48.1v-0.2h904.1V117.89999999999998z"  horiz-adv-x="1024" />

    
    <glyph glyph-name="anmozuoyi1" unicode="&#59055;" d="M234.3 165.3h559.4c51.5 0 93.2-41.8 93.2-93.5s-41.7-93.5-93.2-93.5H234.3c-51.5 0-93.2 41.8-93.2 93.5s41.7 93.5 93.2 93.5z m-43.9 323.8l43.5 201c12.4 57.3 63 98.2 121.5 98.2h317.2c58.5 0 109.1-40.9 121.5-98.2l40.8-188.3c4.1 17.7 18.4 32.1 37.3 35.4 25.4 4.5 49.5-12.5 54-37.9l27-153.4c4.5-25.4-12.5-49.7-37.8-54.1-13.6-2.4-27 1.4-37 9.4l6.3-29.3c7.3-33.6-14-66.8-47.6-74.1-4.3-0.9-8.7-1.4-13.2-1.4l-619.8-0.4c-34.3 0-62.2 27.9-62.2 62.3 0 4.5 0.5 8.9 1.4 13.2l7.4 34.1c-10.4-11-25.9-16.7-42-13.9-25.4 4.5-42.3 28.7-37.8 54.1l27 153.4c4.5 25.4 28.6 42.4 54 37.9 23.3-4 39.5-24.9 38.5-48z"  horiz-adv-x="1024" />

    
    <glyph glyph-name="qinglvzuoyiyou" unicode="&#59056;" d="M931.86666667 500.2c-3 0-6-0.2-8.8-0.5v70.5c0 119.2-96.7 215.9-215.9 215.9H194.56666667C75.26666667 786-21.33333333 689.4-21.33333333 570.2v-100.9c17.6 28.3 47.6 47 81.8 47 54.2 0 98.1-47 98.1-105 0-10-1.3-19.8-3.8-29C141.76666667 322 83.06666667 266.79999999999995-21.33333333 216.70000000000005v-85.4h0.2v-122.6h904.1v0.2h48.1c6.2 0 12.2 0.8 17.9 2.3 30.8 7.6 53.7 35.5 53.7 68.7V429.4c0 39.1-31.7 70.8-70.8 70.8z"  horiz-adv-x="1024" />

    
    <glyph glyph-name="qinglvzuoyizuo" unicode="&#59057;" d="M963.53333333 516.2c34.1 0 64.2-18.6 81.8-47V570.1c0 119.2-96.7 215.9-215.9 215.9H316.83333333c-119.2 0-215.9-96.6-215.9-215.9v-70.5c-2.9 0.4-5.8 0.5-8.8 0.5C53.03333333 500.2 21.33333333 468.5 21.33333333 429.4v-349.5c0-33.2 22.9-61.1 53.7-68.7 5.7-1.5 11.7-2.3 17.9-2.3h48.1v-0.2h904.1V131.20000000000005h0.2v85.4c-104.4 50.1-163.1 105.3-176.1 165.6-2.5 9.2-3.8 18.9-3.8 29 0 58 43.9 105 98.1 105z"  horiz-adv-x="1024" />

    


  </font>
</defs>
</svg>
